<svg width="16" height="16" viewBox="0 0 16 16" fill="none" xmlns="http://www.w3.org/2000/svg">
<g id="Frame">
<path id="Vector" opacity="0.2" d="M13 6L8 11L3 6H13Z" fill="#2C3882"/>
<path id="Vector_2" d="M13.4623 5.80875C13.4244 5.71738 13.3604 5.63928 13.2782 5.58432C13.1959 5.52936 13.0993 5.50002 13.0004 5.5H3.00039C2.90145 5.49992 2.8047 5.5292 2.7224 5.58414C2.64011 5.63908 2.57596 5.71719 2.53808 5.8086C2.50021 5.90002 2.4903 6.00061 2.50963 6.09765C2.52895 6.1947 2.57664 6.28382 2.64664 6.35375L7.64664 11.3538C7.69308 11.4002 7.74822 11.4371 7.80892 11.4623C7.86962 11.4874 7.93469 11.5004 8.00039 11.5004C8.0661 11.5004 8.13117 11.4874 8.19186 11.4623C8.25256 11.4371 8.30771 11.4002 8.35414 11.3538L13.3541 6.35375C13.424 6.28379 13.4716 6.19466 13.4909 6.09765C13.5101 6.00064 13.5002 5.9001 13.4623 5.80875ZM8.00039 10.2931L4.20727 6.5H11.7935L8.00039 10.2931Z" fill="white"/>
</g>
</svg>
