<svg width="20" height="21" viewBox="0 0 20 21" fill="none" xmlns="http://www.w3.org/2000/svg">
<g id="Group">
<path id="Vector" d="M17.0711 3.42895C15.1823 1.5402 12.6711 0.5 10 0.5C7.32891 0.5 4.8177 1.5402 2.92891 3.42895C1.04016 5.3177 0 7.82891 0 10.5C0 13.1711 1.04016 15.6823 2.92891 17.5711C4.81766 19.4598 7.32891 20.5 10 20.5C12.6711 20.5 15.1823 19.4598 17.0711 17.5711C18.9598 15.6823 20 13.1711 20 10.5C20 7.82891 18.9598 5.3177 17.0711 3.42895ZM10.5859 3.89488L12.948 2.17867C14.7146 2.80645 16.2239 3.98152 17.271 5.49918L16.4159 8.13066L13.4025 9.1098L10.5859 7.06355V3.89488ZM7.05191 2.17871L9.41406 3.89488V7.06363L6.59785 9.10961L3.58426 8.13047L2.72914 5.49902C3.77621 3.98145 5.28539 2.80645 7.05191 2.17871ZM3.1793 16.0986C1.97145 14.6298 1.22777 12.7655 1.17496 10.7323L3.22215 9.24496L6.23555 10.2241L7.31137 13.5352L5.44895 16.0986H3.1793ZM12.9415 18.8236C12.0209 19.1499 11.031 19.3281 10 19.3281C8.96906 19.3281 7.9791 19.1499 7.05859 18.8236L6.39695 16.7874L8.25934 14.2241L11.7407 14.2239L13.6032 16.7873L12.9415 18.8236ZM16.8208 16.0985H14.5512L12.6888 13.5351L13.7646 10.2243L16.778 9.2452L18.825 10.7325C18.7722 12.7656 18.0286 14.6297 16.8208 16.0985Z" fill="#2C3882"/>
</g>
</svg>
