<svg width="22" height="16" viewBox="0 0 22 16" fill="none" xmlns="http://www.w3.org/2000/svg">
<g id="Frame" clip-path="url(#clip0_396_64415)">
<g id="Group">
<g id="Layer 1">
<g id="Group_2">
<path id="Vector" d="M3.06366 1.27734L0 4.12842L4.81823 7.31686L7.31851 2.6222L3.06366 1.27734Z" fill="url(#paint0_linear_396_64415)"/>
<path id="Vector_2" d="M18.9087 1.26758L21.9829 4.107L17.1842 7.29292L14.6484 2.61243L18.9087 1.26758Z" fill="url(#paint1_linear_396_64415)"/>
<path id="Vector_3" d="M18.9084 1.26758L18.4961 1.39786L18.9622 6.1124L21.9826 4.107L18.9084 1.26758Z" fill="url(#paint2_linear_396_64415)"/>
<path id="Vector_4" d="M14.6719 2.60518L16.0241 5.1237L17.654 1.67676L14.6719 2.60518Z" fill="url(#paint3_linear_396_64415)"/>
<path id="Vector_5" d="M4.81836 7.31655L11.0041 7.30604L17.1898 7.29552L15.9305 4.95025L14.6713 2.60498L10.9951 2.61344L7.31864 2.62189L6.06839 4.96922L4.81836 7.31655Z" fill="url(#paint4_radial_396_64415)"/>
<path id="Vector_6" d="M4.81836 7.31693L17.1898 7.2959L11.0002 15.9787L4.81836 7.31693Z" fill="url(#paint5_linear_396_64415)"/>
<path id="Vector_7" d="M4.81836 7.31693L17.1898 7.2959L11.0002 15.9787L4.81836 7.31693Z" fill="url(#paint6_radial_396_64415)"/>
<path id="Vector_8" d="M0 4.12842L11.0001 15.9787L4.81823 7.31685L0 4.12842Z" fill="url(#paint7_linear_396_64415)"/>
<path id="Vector_9" d="M21.983 4.10693L11.0273 15.9999L17.1843 7.29285L21.983 4.10693Z" fill="url(#paint8_linear_396_64415)"/>
<path id="Vector_10" d="M14.969 0L18.9371 1.2772L14.672 2.60515L7.31931 2.62206L3.06445 1.2772L7.03257 0H14.969Z" fill="url(#paint9_linear_396_64415)"/>
<path id="Vector_11" d="M7.03257 0L3.06445 1.2772L5.54273 2.06048L8.13889 0H7.03257Z" fill="url(#paint10_linear_396_64415)"/>
<path id="Vector_12" d="M10.9026 0L9.04492 2.61817L12.5556 2.61017L13.0975 0H10.9026Z" fill="url(#paint11_linear_396_64415)"/>
<path id="Vector_13" d="M18.936 1.2772L14.9679 0H14.1191L14.5628 2.6056L14.6708 2.60515L18.936 1.2772Z" fill="url(#paint12_linear_396_64415)"/>
<path id="Vector_14" style="mix-blend-mode:multiply" d="M7.31864 2.62207L11.0041 7.30621L4.81836 7.31673L7.31864 2.62207Z" fill="url(#paint13_linear_396_64415)"/>
<path id="Vector_15" style="mix-blend-mode:multiply" d="M14.6711 2.60498L11.0039 7.30604L17.1896 7.29552L14.6711 2.60498Z" fill="url(#paint14_linear_396_64415)"/>
<path id="Vector_16" style="mix-blend-mode:multiply" d="M4.81836 7.31655L14.6713 2.60498L17.1898 7.29552L4.81836 7.31655Z" fill="url(#paint15_linear_396_64415)"/>
<path id="Vector_17" style="mix-blend-mode:multiply" d="M3.06366 1.27734L4.81823 7.31686L0 4.12842L3.06366 1.27734Z" fill="url(#paint16_linear_396_64415)"/>
<path id="Vector_18" d="M3.06445 1.2772L16.4155 0.46558L14.969 0H7.03257L3.06445 1.2772Z" fill="url(#paint17_linear_396_64415)"/>
<path id="Vector_19" opacity="0.29" d="M11.0276 16L8.42631 7.31055L4.81836 7.31672L11.0276 16Z" fill="url(#paint18_linear_396_64415)"/>
<path id="Vector_20" opacity="0.52" d="M11.0273 16.0002L17.1895 7.2959L13.0464 7.30298L11.0273 16.0002Z" fill="url(#paint19_linear_396_64415)"/>
<path id="Vector_21" d="M18.9369 1.27731C18.5852 1.39959 18.232 1.51707 17.8793 1.63593C17.527 1.75592 17.1729 1.87066 16.8192 1.98654L15.7583 2.33395L14.6946 2.67268L14.6861 2.67542H14.6766C14.0639 2.67657 13.4511 2.68365 12.8385 2.68L11.0004 2.67222C10.6942 2.67222 10.3877 2.66697 10.0814 2.66331L9.16232 2.65165C8.85605 2.64891 8.54955 2.6416 8.24327 2.6352C7.937 2.62903 7.63049 2.62285 7.32422 2.61348C7.63049 2.60411 7.937 2.59794 8.24327 2.59177C8.54955 2.5856 8.85605 2.57829 9.16232 2.57531L10.0814 2.56366C10.3877 2.56 10.6942 2.55497 11.0004 2.55474L12.8385 2.54697C13.4513 2.54332 14.0641 2.5504 14.6766 2.55154L14.6587 2.55429L15.725 2.22493L16.7941 1.90426C17.1504 1.79752 17.5065 1.68941 17.864 1.58656C18.2213 1.48279 18.5781 1.37742 18.9364 1.27686L18.9369 1.27731Z" fill="url(#paint20_linear_396_64415)"/>
<path id="Vector_22" d="M11.0009 15.9787L10.599 15.448L10.2002 14.915C9.93386 14.56 9.66868 14.2041 9.40596 13.8464L8.61827 12.7731L7.83529 11.6961C7.57505 11.3366 7.31413 10.9775 7.05635 10.6164L6.28056 9.53416C5.76725 8.80985 5.25103 8.08759 4.74222 7.36008L4.70898 7.31254L4.73615 7.26271C4.9479 6.87301 5.15964 6.48355 5.37408 6.09545L6.01717 4.93093C6.23183 4.54283 6.44896 4.15633 6.66744 3.77052L6.99415 3.19112L7.32446 2.61377L7.02739 3.20963L6.72695 3.80343C6.5271 4.19976 6.32614 4.59517 6.12248 4.98921L5.51083 6.1711C5.30694 6.56514 5.10059 6.95758 4.89401 7.35002L4.88772 7.25266C5.40978 7.97034 5.92466 8.69374 6.44223 9.41485L7.21286 10.5007C7.47041 10.8621 7.72504 11.2257 7.98034 11.5889L8.74379 12.6801L9.50252 13.7749C9.75535 14.1399 10.0055 14.5067 10.2547 14.8745L10.6293 15.4256L11.0007 15.9789L11.0009 15.9787Z" fill="url(#paint21_linear_396_64415)"/>
<path id="Vector_23" d="M20.7835 4.90259C20.3779 5.16063 19.974 5.42119 19.5709 5.68289L18.3604 6.4664C17.9733 6.71554 17.5898 6.96993 17.2047 7.2218L15.963 4.94236L15.3217 3.77692L14.6764 2.61377L15.2858 3.7968L15.8992 4.97778L17.0909 7.24831L14.093 7.23986C13.5774 7.23711 13.0621 7.24031 12.5466 7.24146L11.0001 7.2458C10.4846 7.24808 9.96928 7.24671 9.45373 7.2522L7.9073 7.26523C7.39175 7.26888 6.87643 7.27391 6.36088 7.28214C5.84533 7.28923 5.33 7.29563 4.81445 7.30637C5.33 7.31688 5.84533 7.32328 6.36088 7.3306C6.87643 7.33882 7.39175 7.34362 7.9073 7.34751L9.45373 7.36054C9.96928 7.36602 10.4846 7.36465 11.0001 7.36694L12.5466 7.37128C13.0621 7.37242 13.5774 7.37562 14.093 7.37288L17.0704 7.36465L15.586 9.43519L14.0458 11.6079C13.7885 11.9695 13.533 12.3324 13.279 12.6968L12.5154 13.7879C12.2601 14.1511 12.0074 14.5163 11.7553 14.8816C11.5027 15.2468 11.2498 15.6118 10.9999 15.9789C11.2653 15.6233 11.528 15.2656 11.791 14.9081C12.0542 14.5509 12.3171 14.1934 12.5773 13.8339L13.3601 12.7569C13.6217 12.3985 13.8817 12.0387 14.1397 11.6776L15.6924 9.51427L17.2272 7.35117C17.6239 7.08649 18.0229 6.82502 18.4179 6.5576L19.6145 5.75215C20.0137 5.48427 20.4123 5.21526 20.8091 4.9435C21.2065 4.67265 21.6042 4.40249 21.9998 4.12868C21.5929 4.38466 21.1883 4.64408 20.7832 4.90281L20.7835 4.90259Z" fill="url(#paint22_linear_396_64415)"/>
<path id="Vector_24" d="M0 4.12842L0.611654 4.51012L1.22106 4.89524L1.83047 5.28037C2.03413 5.40791 2.23532 5.53956 2.43763 5.66915L3.65061 6.44878L4.2571 6.8387L4.86179 7.23137L4.81397 7.21697L6.36039 7.20851L7.90681 7.20531L9.45324 7.2076L10.9997 7.21423C11.5152 7.21789 12.0305 7.21926 12.5461 7.22703L14.0925 7.24623L14.8658 7.25583L15.6389 7.27137L16.412 7.28714L17.1851 7.3068L16.412 7.32645L15.6389 7.34199L14.8658 7.35754L14.0925 7.36714L12.5461 7.38634C12.0305 7.39411 11.5152 7.39548 10.9997 7.39914L9.45324 7.40576L7.90681 7.40805L6.36039 7.40485L4.81397 7.39639H4.78747L4.76614 7.38199L4.16728 6.98018L3.57023 6.57563L2.37611 5.76629C2.17739 5.63098 1.97732 5.49773 1.77972 5.36059L1.18558 4.95124L0.591445 4.54189L0 4.12842Z" fill="url(#paint23_linear_396_64415)"/>
<path id="Vector_25" d="M13.7559 2.56826C13.4496 2.55683 13.1431 2.54403 12.8368 2.53603C12.5306 2.52643 12.2241 2.51775 11.9178 2.51203C11.6115 2.50563 11.305 2.49786 10.9987 2.49512L10.0797 2.48369L9.16062 2.47981C8.85435 2.47752 8.54785 2.47912 8.24157 2.48049L7.35777 2.48506L6.82785 2.32187C6.65024 2.2661 6.4715 2.21513 6.29322 2.16165L5.75813 2.00303L5.22148 1.84966C5.04274 1.79801 4.86356 1.74772 4.68392 1.69904C4.50429 1.65036 4.32533 1.59916 4.14524 1.55253C3.78553 1.45699 3.42514 1.36305 3.0625 1.27734C3.40964 1.41448 3.75948 1.54316 4.10954 1.67047C4.28424 1.73515 4.4605 1.79526 4.63587 1.85812C4.81124 1.92074 4.98705 1.98177 5.16332 2.04165L5.69167 2.22245L6.22159 2.39798C6.3983 2.45604 6.57457 2.51615 6.75196 2.57192L7.13009 2.6926C7.05015 2.84002 6.97044 2.98767 6.89275 3.13646L6.58198 3.72478C6.47757 3.92043 6.3772 4.11814 6.27525 4.31516C6.17421 4.51263 6.07092 4.70897 5.97167 4.90736L5.67281 5.50208L5.37933 6.09977L5.09169 6.70065C4.99738 6.90202 4.9033 7.10315 4.81281 7.30657C4.93159 7.11892 5.04633 6.92922 5.1613 6.73928L5.50103 6.16719L5.83493 5.5919L6.16343 5.01364C6.27323 4.82096 6.37922 4.62623 6.48722 4.43264C6.59455 4.23859 6.70323 4.04545 6.80787 3.85003L7.12447 3.26514C7.21901 3.09212 7.31107 2.91773 7.40291 2.74311L8.24112 2.74745C8.5474 2.74905 8.8539 2.75065 9.16018 2.74814L10.0792 2.74425L10.9983 2.73282C11.3046 2.73008 11.6111 2.72231 11.9173 2.71591C12.2236 2.7102 12.5301 2.70151 12.8364 2.69191C13.1427 2.68391 13.4492 2.67111 13.7554 2.65968C14.0617 2.64689 14.3682 2.63226 14.6745 2.6142C14.3682 2.59637 14.0617 2.58152 13.7554 2.56872L13.7559 2.56826Z" fill="url(#paint24_linear_396_64415)"/>
<g id="Group_3">
<path id="Vector_26" style="mix-blend-mode:screen" d="M8.02022 3.46954C8.4342 3.04815 8.4342 2.36494 8.02022 1.94355C7.60624 1.52216 6.93504 1.52216 6.52106 1.94355C6.10708 2.36494 6.10708 3.04815 6.52106 3.46954C6.93504 3.89093 7.60624 3.89093 8.02022 3.46954Z" fill="url(#paint25_radial_396_64415)"/>
<path id="Vector_27" style="mix-blend-mode:screen" d="M7.29166 3.01771C7.31793 2.89931 7.42459 2.81794 7.54337 2.82503L8.70695 2.8952L7.57009 2.63349C7.45378 2.60675 7.37384 2.49819 7.3808 2.37728L7.44974 1.19287L7.19263 2.35008C7.16636 2.46847 7.05971 2.54984 6.94092 2.54276L5.77734 2.47259L6.9142 2.73429C7.03051 2.76103 7.11045 2.8696 7.10349 2.99051L7.03456 4.17491L7.29166 3.01771Z" fill="url(#paint26_radial_396_64415)"/>
</g>
<path id="Vector_28" style="mix-blend-mode:screen" d="M5.50137 7.34837C5.56873 7.05878 5.39269 6.76873 5.1082 6.70017C4.8237 6.6316 4.53876 6.81079 4.47139 7.10038C4.40403 7.38997 4.58007 7.68001 4.86457 7.74858C5.14906 7.81715 5.43401 7.63795 5.50137 7.34837Z" fill="url(#paint27_radial_396_64415)"/>
</g>
</g>
</g>
</g>
<defs>
<linearGradient id="paint0_linear_396_64415" x1="4.65948" y1="2.79065" x2="2.10962" y2="5.99713" gradientUnits="userSpaceOnUse">
<stop stop-color="#7CC4F4"/>
<stop offset="0.54" stop-color="#72AFF4"/>
<stop offset="1" stop-color="#699BF4"/>
</linearGradient>
<linearGradient id="paint1_linear_396_64415" x1="14.6549" y1="4.29286" x2="21.9837" y2="4.26521" gradientUnits="userSpaceOnUse">
<stop stop-color="#3872D6"/>
<stop offset="0.37" stop-color="#3268DC"/>
<stop offset="0.99" stop-color="#224EEE"/>
<stop offset="1" stop-color="#224EEF"/>
</linearGradient>
<linearGradient id="paint2_linear_396_64415" x1="21.7898" y1="4.37285" x2="17.7203" y2="3.43216" gradientUnits="userSpaceOnUse">
<stop stop-color="#3872D6"/>
<stop offset="0.37" stop-color="#3268DC"/>
<stop offset="0.99" stop-color="#224EEE"/>
<stop offset="1" stop-color="#224EEF"/>
</linearGradient>
<linearGradient id="paint3_linear_396_64415" x1="18.6214" y1="5.40665" x2="15.6319" y2="2.15831" gradientUnits="userSpaceOnUse">
<stop stop-color="#3872D6"/>
<stop offset="0.37" stop-color="#3268DC"/>
<stop offset="0.99" stop-color="#224EEE"/>
<stop offset="1" stop-color="#224EEF"/>
</linearGradient>
<radialGradient id="paint4_radial_396_64415" cx="0" cy="0" r="1" gradientUnits="userSpaceOnUse" gradientTransform="translate(15.1235 6.94079) scale(8.70282 8.85859)">
<stop stop-color="#52F7FA"/>
<stop offset="1" stop-color="#456FFF"/>
</radialGradient>
<linearGradient id="paint5_linear_396_64415" x1="10.9973" y1="7.19327" x2="11.5489" y2="16.09" gradientUnits="userSpaceOnUse">
<stop stop-color="#0D61D1"/>
<stop offset="0.29" stop-color="#156DE1"/>
<stop offset="0.7" stop-color="#1F7AF3"/>
<stop offset="1" stop-color="#237FFA"/>
</linearGradient>
<radialGradient id="paint6_radial_396_64415" cx="0" cy="0" r="1" gradientUnits="userSpaceOnUse" gradientTransform="translate(11.1253 5.2793) scale(10.1489 10.3305)">
<stop stop-color="#52F7FA"/>
<stop offset="1" stop-color="#456FFF"/>
</radialGradient>
<linearGradient id="paint7_linear_396_64415" x1="1.93848" y1="5.16472" x2="8.07237" y2="12.1851" gradientUnits="userSpaceOnUse">
<stop stop-color="#004294"/>
<stop offset="0.25" stop-color="#0048A1"/>
<stop offset="0.69" stop-color="#0050B3"/>
<stop offset="1" stop-color="#0053BA"/>
</linearGradient>
<linearGradient id="paint8_linear_396_64415" x1="20.0172" y1="5.19889" x2="14.3278" y2="11.5359" gradientUnits="userSpaceOnUse">
<stop stop-color="#1837C7"/>
<stop offset="0.2" stop-color="#1533BF"/>
<stop offset="0.51" stop-color="#102BA9"/>
<stop offset="0.88" stop-color="#071D86"/>
<stop offset="1" stop-color="#04197A"/>
</linearGradient>
<linearGradient id="paint9_linear_396_64415" x1="3.06445" y1="1.31103" x2="18.9371" y2="1.31103" gradientUnits="userSpaceOnUse">
<stop stop-color="#B8DEE1"/>
<stop offset="0.22" stop-color="#AED9E4"/>
<stop offset="0.58" stop-color="#94CCEF"/>
<stop offset="1" stop-color="#6EB9FF"/>
</linearGradient>
<linearGradient id="paint10_linear_396_64415" x1="6.45976" y1="1.02373" x2="19.6542" y2="1.2419" gradientUnits="userSpaceOnUse">
<stop stop-color="#B8DEE1"/>
<stop offset="0.22" stop-color="#AED9E4"/>
<stop offset="0.58" stop-color="#94CCEF"/>
<stop offset="1" stop-color="#6EB9FF"/>
</linearGradient>
<linearGradient id="paint11_linear_396_64415" x1="6.45482" y1="1.22989" x2="19.6493" y2="1.44806" gradientUnits="userSpaceOnUse">
<stop stop-color="#B8DEE1"/>
<stop offset="0.22" stop-color="#AED9E4"/>
<stop offset="0.58" stop-color="#94CCEF"/>
<stop offset="1" stop-color="#6EB9FF"/>
</linearGradient>
<linearGradient id="paint12_linear_396_64415" x1="6.4564" y1="1.16041" x2="19.6509" y2="1.37858" gradientUnits="userSpaceOnUse">
<stop stop-color="#B8DEE1"/>
<stop offset="0.22" stop-color="#AED9E4"/>
<stop offset="0.58" stop-color="#94CCEF"/>
<stop offset="1" stop-color="#6EB9FF"/>
</linearGradient>
<linearGradient id="paint13_linear_396_64415" x1="9.84497" y1="8.42045" x2="5.8739" y2="4.91808" gradientUnits="userSpaceOnUse">
<stop stop-color="white"/>
<stop offset="0.27" stop-color="#FBFCFF"/>
<stop offset="0.49" stop-color="#F1F4FF"/>
<stop offset="0.7" stop-color="#DFE6FF"/>
<stop offset="0.9" stop-color="#C7D4FF"/>
<stop offset="1" stop-color="#B8C8FF"/>
</linearGradient>
<linearGradient id="paint14_linear_396_64415" x1="14.0036" y1="7.60545" x2="15.4721" y2="2.96259" gradientUnits="userSpaceOnUse">
<stop stop-color="white"/>
<stop offset="0.27" stop-color="#FBFCFF"/>
<stop offset="0.49" stop-color="#F1F4FF"/>
<stop offset="0.7" stop-color="#DFE6FF"/>
<stop offset="0.9" stop-color="#C7D4FF"/>
<stop offset="1" stop-color="#B8C8FF"/>
</linearGradient>
<linearGradient id="paint15_linear_396_64415" x1="5.53465" y1="7.01599" x2="16.6997" y2="4.87481" gradientUnits="userSpaceOnUse">
<stop stop-color="white"/>
<stop offset="0.27" stop-color="#FBFCFF"/>
<stop offset="0.49" stop-color="#F1F4FF"/>
<stop offset="0.7" stop-color="#DFE6FF"/>
<stop offset="0.9" stop-color="#C7D4FF"/>
<stop offset="1" stop-color="#B8C8FF"/>
</linearGradient>
<linearGradient id="paint16_linear_396_64415" x1="4.30605" y1="3.58193" x2="2.22244" y2="5.85135" gradientUnits="userSpaceOnUse">
<stop stop-color="white"/>
<stop offset="0.27" stop-color="#FBFCFF"/>
<stop offset="0.49" stop-color="#F1F4FF"/>
<stop offset="0.7" stop-color="#DFE6FF"/>
<stop offset="0.9" stop-color="#C7D4FF"/>
<stop offset="1" stop-color="#B8C8FF"/>
</linearGradient>
<linearGradient id="paint17_linear_396_64415" x1="3.0768" y1="0.536663" x2="16.4107" y2="0.757259" gradientUnits="userSpaceOnUse">
<stop stop-color="#CDE0E1"/>
<stop offset="0.22" stop-color="#C3DCE5"/>
<stop offset="0.59" stop-color="#A9D2EF"/>
<stop offset="1" stop-color="#85C4FF"/>
</linearGradient>
<linearGradient id="paint18_linear_396_64415" x1="8.26958" y1="16.6848" x2="7.44101" y2="5.08664" gradientUnits="userSpaceOnUse">
<stop stop-color="#0D61D1"/>
<stop offset="0.29" stop-color="#156DE1"/>
<stop offset="0.7" stop-color="#1F7AF3"/>
<stop offset="1" stop-color="#237FFA"/>
</linearGradient>
<linearGradient id="paint19_linear_396_64415" x1="14.4253" y1="16.2452" x2="13.5968" y2="4.64709" gradientUnits="userSpaceOnUse">
<stop stop-color="#0E67DE"/>
<stop offset="0.25" stop-color="#1B73E7"/>
<stop offset="0.69" stop-color="#2D83F5"/>
<stop offset="1" stop-color="#3489FA"/>
</linearGradient>
<linearGradient id="paint20_linear_396_64415" x1="14.5482" y1="1.65101" x2="18.9126" y2="0.469692" gradientUnits="userSpaceOnUse">
<stop stop-color="#ADC3F0"/>
<stop offset="0.45" stop-color="#7FA4F0"/>
<stop offset="0.8" stop-color="#6391F0"/>
<stop offset="1" stop-color="#598AF0"/>
</linearGradient>
<linearGradient id="paint21_linear_396_64415" x1="6.6753" y1="5.91351" x2="12.884" y2="14.56" gradientUnits="userSpaceOnUse">
<stop stop-color="#ADC3F0"/>
<stop offset="0.45" stop-color="#7FA4F0"/>
<stop offset="0.8" stop-color="#6391F0"/>
<stop offset="1" stop-color="#598AF0"/>
</linearGradient>
<linearGradient id="paint22_linear_396_64415" x1="16.5612" y1="10.1179" x2="15.2944" y2="8.82911" gradientUnits="userSpaceOnUse">
<stop stop-color="#ADC3F0"/>
<stop offset="0.45" stop-color="#7FA4F0"/>
<stop offset="0.8" stop-color="#6391F0"/>
<stop offset="1" stop-color="#598AF0"/>
</linearGradient>
<linearGradient id="paint23_linear_396_64415" x1="5.0046" y1="5.79897" x2="16.1555" y2="5.95185" gradientUnits="userSpaceOnUse">
<stop stop-color="#ADC3F0"/>
<stop offset="0.45" stop-color="#7FA4F0"/>
<stop offset="0.8" stop-color="#6391F0"/>
<stop offset="1" stop-color="#598AF0"/>
</linearGradient>
<linearGradient id="paint24_linear_396_64415" x1="5.76487" y1="1.68121" x2="11.4408" y2="6.19532" gradientUnits="userSpaceOnUse">
<stop stop-color="white"/>
<stop offset="0.44" stop-color="#D3DFF7"/>
<stop offset="0.79" stop-color="#B7CAF1"/>
<stop offset="1" stop-color="#ADC3F0"/>
</linearGradient>
<radialGradient id="paint25_radial_396_64415" cx="0" cy="0" r="1" gradientUnits="userSpaceOnUse" gradientTransform="translate(7.27064 2.70654) rotate(45.5082) scale(1.06959 1.06943)">
<stop stop-color="white"/>
<stop offset="0.22" stop-color="#B3B3B3"/>
<stop offset="0.43" stop-color="#737373"/>
<stop offset="0.61" stop-color="#414141"/>
<stop offset="0.78" stop-color="#1D1D1D"/>
<stop offset="0.91" stop-color="#070707"/>
<stop offset="0.99"/>
</radialGradient>
<radialGradient id="paint26_radial_396_64415" cx="0" cy="0" r="1" gradientUnits="userSpaceOnUse" gradientTransform="translate(7.24197 2.68404) rotate(45.5082) scale(1.1933 1.19311)">
<stop stop-color="white"/>
<stop offset="0.09" stop-color="#F1F1F1"/>
<stop offset="0.26" stop-color="#CDCDCD"/>
<stop offset="0.49" stop-color="#929292"/>
<stop offset="0.78" stop-color="#424242"/>
<stop offset="0.99"/>
</radialGradient>
<radialGradient id="paint27_radial_396_64415" cx="0" cy="0" r="1" gradientUnits="userSpaceOnUse" gradientTransform="translate(4.98623 7.22433) rotate(45.5082) scale(0.534004 0.53392)">
<stop stop-color="white"/>
<stop offset="0.22" stop-color="#B3B3B3"/>
<stop offset="0.43" stop-color="#737373"/>
<stop offset="0.61" stop-color="#414141"/>
<stop offset="0.78" stop-color="#1D1D1D"/>
<stop offset="0.91" stop-color="#070707"/>
<stop offset="0.99"/>
</radialGradient>
<clipPath id="clip0_396_64415">
<rect width="22" height="16" fill="white"/>
</clipPath>
</defs>
</svg>
