<?xml version="1.0" standalone="no"?>
<!DOCTYPE svg PUBLIC "-//W3C//DTD SVG 20010904//EN"
 "http://www.w3.org/TR/2001/REC-SVG-20010904/DTD/svg10.dtd">
<svg version="1.0" xmlns="http://www.w3.org/2000/svg"
 width="913.000000pt" height="552.000000pt" viewBox="0 0 913.000000 552.000000"
 preserveAspectRatio="xMidYMid meet">

<g transform="translate(0.000000,552.000000) scale(0.100000,-0.100000)"
fill="#000000" stroke="none">
<path d="M5170 5500 c-315 -30 -599 -104 -852 -222 -750 -347 -1175 -839
-1213 -1403 -3 -49 -2 -110 2 -134 l8 -44 55 88 c129 211 306 417 455 528 86
64 216 133 274 143 21 4 63 29 101 59 463 370 1118 556 1864 531 457 -16 803
-69 1676 -256 231 -50 364 -60 474 -36 214 48 386 199 501 441 36 76 95 253
95 285 0 19 -1 19 -52 -2 -101 -41 -271 -88 -401 -112 -210 -39 -373 -49 -642
-43 -278 6 -397 18 -975 92 -234 30 -495 62 -580 70 -185 19 -657 27 -790 15z"/>
<path d="M6760 4693 c-19 -1 -87 -8 -150 -14 -764 -71 -1538 -350 -2145 -774
-320 -223 -721 -608 -907 -870 -67 -94 -159 -287 -197 -410 -156 -512 -6
-1020 399 -1348 l45 -37 -44 0 c-59 0 -211 85 -304 170 -157 144 -269 383
-308 659 -17 120 -6 399 20 523 102 473 383 873 811 1150 47 31 126 76 176
101 l92 46 6 55 c10 79 66 187 133 258 146 154 386 255 731 307 70 11 123 20
117 20 -5 1 -39 6 -75 11 -101 15 -401 13 -524 -5 -705 -99 -1283 -516 -1689
-1220 -141 -244 -216 -602 -189 -908 47 -529 322 -936 791 -1171 l93 -47 -7
-37 c-3 -20 -35 -170 -69 -332 l-63 -295 -30 65 c-16 36 -87 197 -158 358
l-129 292 -136 0 -136 0 -128 -548 c-70 -302 -130 -559 -133 -571 -5 -22 -5
-22 148 -19 l154 3 76 345 c64 291 78 341 87 320 6 -14 76 -169 156 -345 l145
-320 132 -3 c73 -1 136 1 140 5 4 4 58 226 120 493 61 267 113 486 114 488 2
2 48 -6 104 -17 55 -12 109 -21 120 -21 12 0 21 -6 21 -12 -1 -7 -49 -221
-109 -476 l-107 -462 157 0 158 0 9 32 c5 18 29 120 53 225 l44 193 203 0
c189 0 203 -1 198 -17 -11 -39 -96 -414 -96 -423 0 -7 54 -10 157 -8 l157 3
88 380 c87 376 88 380 120 405 51 38 116 109 161 175 65 95 111 146 218 241
125 111 130 114 123 75 -5 -25 -1 -36 24 -61 74 -73 181 -12 299 172 l56 87
30 -25 c17 -14 67 -44 111 -67 75 -38 87 -41 161 -42 66 0 89 4 130 25 65 33
189 155 252 250 28 42 71 100 97 129 47 56 57 75 171 315 36 77 81 161 100
187 19 26 46 72 61 101 15 29 41 69 59 89 39 43 55 107 55 212 0 95 32 213 80
297 11 19 20 48 20 64 0 16 23 72 51 126 l51 97 36 -8 c59 -13 123 -38 171
-66 50 -29 185 -148 306 -269 45 -44 103 -95 131 -114 73 -49 182 -137 237
-189 42 -40 47 -50 47 -88 0 -47 -2 -45 105 -133 33 -28 68 -57 78 -65 9 -8
26 -15 38 -15 11 0 29 -5 39 -10 24 -13 56 18 70 69 14 49 13 50 -17 95 -43
65 -65 86 -113 111 -49 25 -105 91 -201 235 -105 159 -171 233 -261 293 -60
39 -123 97 -224 203 -77 82 -155 170 -172 196 -18 26 -64 73 -103 104 -39 31
-74 67 -79 80 -6 15 -28 33 -62 48 -29 13 -63 35 -75 49 -15 17 -37 29 -63 33
-23 4 -50 14 -62 24 l-21 16 32 36 c17 20 31 44 31 55 0 11 7 41 16 67 31 91
1 231 -64 299 -46 49 -98 70 -161 65 -65 -5 -120 -29 -165 -72 -25 -24 -37
-48 -51 -104 -9 -40 -21 -75 -26 -78 -5 -3 -9 -26 -9 -52 0 -26 -3 -70 -6 -98
l-6 -51 -97 -6 c-53 -3 -132 -13 -176 -22 -79 -16 -134 -45 -259 -134 -21 -15
-62 -34 -90 -40 -28 -7 -88 -28 -133 -47 -45 -19 -114 -41 -155 -49 -85 -18
-210 -77 -288 -137 -89 -68 -290 -202 -358 -238 -73 -38 -183 -154 -157 -164
14 -5 14 -8 0 -30 -15 -23 -15 -27 0 -50 10 -14 23 -26 29 -26 7 0 40 25 74
56 34 31 62 53 62 51 0 -3 -11 -29 -25 -59 -14 -29 -25 -63 -25 -75 0 -36 27
-27 49 15 30 58 60 81 121 89 l55 8 43 80 c23 44 53 91 67 104 15 16 82 44
192 81 92 32 200 69 238 83 39 14 83 27 99 29 25 3 30 -2 41 -32 l12 -35 144
-5 c214 -8 228 -23 150 -152 -28 -46 -64 -123 -81 -172 -17 -50 -41 -101 -54
-115 -38 -40 -66 -110 -66 -166 0 -41 -7 -60 -35 -102 -19 -29 -35 -56 -35
-61 0 -4 -30 -53 -66 -107 -76 -114 -115 -194 -143 -292 -30 -107 -36 -117
-122 -213 -61 -68 -94 -97 -133 -114 -68 -31 -144 -90 -194 -150 -22 -27 -78
-115 -123 -195 -122 -215 -183 -312 -221 -348 l-33 -32 -140 -3 -139 -3 -8
-40 c-24 -115 -24 -115 -76 -115 -70 0 -205 90 -343 229 -244 244 -382 553
-429 960 -13 106 -9 569 5 621 6 23 4 22 -25 -10 -60 -66 -172 -245 -235 -375
-65 -134 -135 -333 -137 -388 -1 -40 36 -138 101 -268 118 -234 268 -417 455
-554 l68 -50 -45 -3 c-52 -3 -104 19 -233 103 -311 202 -462 511 -424 866 29
269 113 487 273 711 378 526 1052 968 1747 1142 254 64 388 80 708 82 l283 1
83 104 c154 192 324 348 463 426 l58 33 -215 -2 c-118 -1 -231 -3 -250 -5z
m1887 -2202 c22 -32 23 -51 2 -51 -5 0 -9 5 -9 12 0 7 -15 27 -32 46 -32 33
-33 34 -8 30 14 -2 34 -17 47 -37z m-2233 -398 c-4 -15 -12 -75 -18 -133 l-11
-105 -65 -5 c-36 -3 -75 -11 -87 -18 -19 -10 -24 -10 -32 6 -14 27 74 160 109
164 17 2 37 20 64 61 22 31 41 57 43 57 2 0 0 -12 -3 -27z m-1874 -973 c8 -5
11 -10 5 -10 -5 0 -17 5 -25 10 -8 5 -10 10 -5 10 6 0 17 -5 25 -10z m178
-167 l153 -6 -6 -31 c-4 -17 -11 -48 -16 -68 l-10 -38 -199 0 c-110 0 -200 3
-200 8 0 4 7 40 17 81 l17 73 46 -6 c25 -4 114 -9 198 -13z"/>
<path d="M1840 1885 c-129 -63 -236 -120 -238 -127 -4 -21 36 -77 70 -98 54
-33 94 -25 285 51 98 39 179 72 181 73 2 3 -32 157 -44 199 -3 9 -8 17 -12 16
-4 0 -113 -51 -242 -114z"/>
<path d="M8395 1906 c-30 -46 -55 -88 -55 -93 0 -5 76 -45 169 -90 l168 -80
52 76 c46 67 49 76 34 85 -10 5 -85 49 -166 97 l-148 88 -54 -83z"/>
<path d="M1880 1503 c-27 -14 -83 -86 -258 -336 l-222 -319 202 -259 202 -260
217 217 c119 119 216 222 213 228 -2 6 -46 157 -99 334 -53 178 -101 335 -107
348 -24 52 -94 74 -148 47z"/>
<path d="M8340 1496 c-380 -81 -700 -388 -776 -745 -30 -145 -9 -327 53 -444
40 -76 164 -195 244 -234 107 -53 178 -68 319 -67 163 0 286 32 430 111 355
193 567 576 506 913 -38 213 -180 374 -393 446 -96 33 -278 42 -383 20z m441
-103 c31 -13 73 -41 93 -62 33 -34 86 -145 86 -180 0 -17 -107 -81 -134 -81
-9 0 -61 22 -115 49 l-98 50 -22 88 c-12 48 -24 95 -27 104 -3 13 11 23 58 42
68 28 75 27 159 -10z m-357 -22 c14 -5 25 -32 42 -102 13 -52 23 -101 24 -109
0 -25 -204 -198 -243 -205 -18 -4 -98 -3 -178 2 l-144 8 -3 70 c-4 92 -2 100
61 175 74 90 154 149 214 160 61 10 202 11 227 1z m-456 -98 c-19 -21 -49 -57
-65 -80 -26 -36 -84 -88 -132 -118 -34 -20 61 94 133 161 83 77 127 102 64 37z
m1072 -300 c44 -117 34 -227 -33 -363 -28 -57 -37 -66 -76 -80 -50 -17 -46
-21 -112 99 l-36 66 41 133 41 133 60 34 c33 18 68 34 77 34 11 1 23 -17 38
-56z m-791 -139 c3 -3 24 -56 47 -117 31 -84 39 -117 32 -131 -6 -10 -54 -78
-109 -152 -73 -98 -106 -135 -127 -141 -15 -3 -63 -1 -106 5 -68 10 -85 17
-114 44 -44 43 -80 105 -103 179 -31 99 -28 112 53 225 l72 100 174 -3 c97 -2
178 -6 181 -9z m-559 -305 c21 -92 32 -120 71 -174 28 -39 31 -49 25 -89 -4
-25 -11 -46 -16 -46 -18 0 -94 98 -124 160 -27 57 -31 78 -34 170 l-4 104 33
-25 c28 -22 36 -37 49 -100z m1049 -21 c32 -58 49 -99 45 -110 -3 -10 -32 -52
-64 -91 -51 -64 -69 -78 -138 -110 -74 -35 -199 -67 -262 -67 -21 0 -40 13
-75 52 -25 28 -44 57 -41 64 3 8 52 76 110 153 l105 139 98 22 c54 12 112 25
128 30 17 4 33 9 36 9 4 1 30 -40 58 -91z m-199 -383 c0 -11 -96 -47 -175 -66
-45 -10 -113 -19 -155 -18 l-75 0 50 18 c28 10 86 21 130 24 61 5 201 34 223
46 1 0 2 -1 2 -4z"/>
<path d="M2103 1405 c15 -72 163 -543 168 -537 4 4 22 74 42 156 l34 148 -124
127 c-69 70 -123 117 -120 106z"/>
<path d="M270 1245 c0 -2 -58 -256 -130 -563 -72 -308 -130 -563 -130 -567 0
-4 134 -5 298 -2 326 6 366 12 476 70 126 67 210 187 223 319 8 91 -17 147
-86 189 l-51 32 53 36 c59 41 111 113 128 174 6 23 9 70 7 104 -3 51 -10 69
-34 100 -43 55 -122 91 -224 103 -84 10 -530 14 -530 5z m456 -280 c18 -18 23
-32 19 -48 -10 -33 -39 -70 -66 -84 -31 -16 -199 -18 -199 -2 0 11 26 121 35
147 3 8 31 12 95 12 84 0 93 -2 116 -25z m-56 -410 c25 -13 30 -22 30 -51 0
-96 -61 -133 -222 -134 l-106 0 14 63 c8 34 19 79 25 100 l10 37 110 0 c79 0
118 -4 139 -15z"/>
<path d="M6249 1235 c-203 -49 -401 -209 -493 -397 -114 -234 -98 -453 47
-614 164 -182 513 -194 764 -27 123 82 223 196 282 324 32 67 61 167 61 206
l0 23 -329 0 c-182 0 -332 -4 -335 -8 -7 -12 -46 -192 -46 -214 0 -17 13 -18
165 -18 l166 0 -12 -21 c-23 -44 -101 -108 -157 -130 -79 -31 -200 -32 -257
-2 -170 90 -171 359 -1 529 93 92 225 134 334 105 50 -14 114 -68 132 -111
l13 -30 161 2 161 3 -3 35 c-15 144 -147 290 -308 340 -79 24 -255 27 -345 5z"/>
<path d="M7165 1208 c-3 -13 -55 -257 -115 -543 -61 -286 -112 -530 -115 -542
l-5 -23 145 0 c142 0 145 0 150 22 3 13 55 257 115 543 60 286 112 530 115
543 l5 22 -145 0 c-142 0 -145 0 -150 -22z"/>
<path d="M2362 1105 c-6 -22 -25 -103 -42 -180 l-32 -140 79 -262 79 -262 122
169 c129 177 152 219 152 271 0 80 -18 108 -186 279 l-162 165 -10 -40z"/>
<path d="M1313 724 c-374 -531 -375 -534 -324 -576 21 -17 46 -18 320 -18
l296 0 89 89 89 89 -189 243 c-104 134 -194 249 -200 257 -9 12 -24 -4 -81
-84z"/>
<path d="M2033 517 l-211 -212 66 -87 67 -87 203 0 c189 -1 203 0 222 19 11
11 20 32 20 46 0 21 -144 521 -153 530 -2 2 -98 -92 -214 -209z"/>
<path d="M1720 205 l-74 -75 137 0 138 0 -58 75 c-31 41 -60 75 -63 75 -3 0
-39 -34 -80 -75z"/>
</g>
</svg>
