<svg width="16" height="17" viewBox="0 0 16 17" fill="none" xmlns="http://www.w3.org/2000/svg">
<g id="Pen">
<path id="Vector" d="M5.79289 13.9999H3C2.86739 13.9999 2.74021 13.9472 2.64645 13.8535C2.55268 13.7597 2.5 13.6325 2.5 13.4999V10.707C2.5 10.6414 2.51293 10.5764 2.53806 10.5157C2.56319 10.455 2.60002 10.3999 2.64645 10.3535L10.1464 2.85348C10.2402 2.75971 10.3674 2.70703 10.5 2.70703C10.6326 2.70703 10.7598 2.75971 10.8536 2.85348L13.6464 5.64637C13.7402 5.74014 13.7929 5.86732 13.7929 5.99992C13.7929 6.13253 13.7402 6.25971 13.6464 6.35348L6.14645 13.8535C6.10002 13.8999 6.0449 13.9367 5.98424 13.9619C5.92357 13.987 5.85855 13.9999 5.79289 13.9999Z" stroke="#9DA5AC" stroke-linecap="round" stroke-linejoin="round"/>
<path id="Vector_2" d="M8.5 4.5L12 8" stroke="#9DA5AC" stroke-linecap="round" stroke-linejoin="round"/>
<path id="Vector_3" d="M10 12.5L12.5 10L12 8" stroke="#9DA5AC" stroke-linecap="round" stroke-linejoin="round"/>
<path id="Vector_4" d="M2.53223 10.5322L5.9687 13.9687" stroke="#9DA5AC" stroke-linecap="round" stroke-linejoin="round"/>
</g>
</svg>
