<svg width="24" height="24" viewBox="0 0 24 24" fill="none" xmlns="http://www.w3.org/2000/svg">
<g id="Pen">
<path id="Vector" d="M8.68934 20.2499H4.5C4.30109 20.2499 4.11032 20.1709 3.96967 20.0302C3.82902 19.8896 3.75 19.6988 3.75 19.4999V15.3105C3.75 15.2121 3.7694 15.1145 3.80709 15.0235C3.84478 14.9325 3.90003 14.8499 3.96967 14.7802L15.2197 3.53022C15.3603 3.38956 15.5511 3.31055 15.75 3.31055C15.9489 3.31055 16.1397 3.38956 16.2803 3.53022L20.4697 7.71956C20.6103 7.86021 20.6893 8.05097 20.6893 8.24989C20.6893 8.4488 20.6103 8.63956 20.4697 8.78022L9.21967 20.0302C9.15003 20.0999 9.06735 20.1551 8.97635 20.1928C8.88536 20.2305 8.78783 20.2499 8.68934 20.2499Z" stroke="white" stroke-width="1.5" stroke-linecap="round" stroke-linejoin="round"/>
<path id="Vector_2" d="M12.75 6L18 11.25" stroke="white" stroke-width="1.5" stroke-linecap="round" stroke-linejoin="round"/>
<path id="Vector_3" d="M15 18L18.75 14.25L18 11.25" stroke="white" stroke-width="1.5" stroke-linecap="round" stroke-linejoin="round"/>
<path id="Vector_4" d="M3.79785 15.0479L8.95256 20.2026" stroke="white" stroke-width="1.5" stroke-linecap="round" stroke-linejoin="round"/>
</g>
</svg>
