<svg width="24" height="24" viewBox="0 0 24 24" fill="none" xmlns="http://www.w3.org/2000/svg">
<g id="Frame">
<path id="Vector" d="M17.2624 13.8469C17.1596 13.9372 17.0831 14.0536 17.0412 14.1839C16.9993 14.3141 16.9934 14.4533 17.0242 14.5866L18.2917 20.0747C18.3252 20.218 18.3158 20.3681 18.2646 20.5061C18.2135 20.6441 18.1228 20.764 18.004 20.8509C17.8851 20.9377 17.7433 20.9877 17.5963 20.9946C17.4492 21.0014 17.3034 20.9648 17.177 20.8894L12.3864 17.9831C12.27 17.9124 12.1364 17.8749 12.0002 17.8749C11.8639 17.8749 11.7303 17.9124 11.6139 17.9831L6.82329 20.8894C6.69689 20.9648 6.55108 21.0014 6.40404 20.9946C6.257 20.9877 6.11522 20.9377 5.99638 20.8509C5.87753 20.764 5.78688 20.6441 5.7357 20.5061C5.68453 20.3681 5.67511 20.218 5.7086 20.0747L6.9761 14.5866C7.00691 14.4533 7.00104 14.3141 6.95912 14.1839C6.91719 14.0536 6.84077 13.9372 6.73798 13.8469L2.50892 10.1578C2.39585 10.0617 2.31383 9.93426 2.27324 9.79153C2.23265 9.64881 2.2353 9.49726 2.28087 9.35604C2.32643 9.21483 2.41286 9.0903 2.52922 8.99822C2.64558 8.90615 2.78663 8.85065 2.93454 8.83876L8.50891 8.35689C8.64492 8.34477 8.77503 8.29576 8.88522 8.21514C8.99542 8.13452 9.08152 8.02534 9.13423 7.89939L11.312 2.70939C11.3702 2.57521 11.4663 2.46096 11.5886 2.3807C11.7109 2.30045 11.8539 2.25769 12.0002 2.25769C12.1464 2.25769 12.2895 2.30045 12.4117 2.3807C12.534 2.46096 12.6301 2.57521 12.6883 2.70939L14.8661 7.89939C14.9188 8.02534 15.0049 8.13452 15.1151 8.21514C15.2253 8.29576 15.3554 8.34477 15.4914 8.35689L21.0658 8.83876C21.2137 8.85065 21.3548 8.90615 21.4711 8.99822C21.5875 9.0903 21.6739 9.21483 21.7195 9.35604C21.765 9.49726 21.7677 9.64881 21.7271 9.79153C21.6865 9.93426 21.6045 10.0617 21.4914 10.1578L17.2624 13.8469Z" fill="#FFA800"/>
<path id="Vector_2" d="M22.4248 9.12093C22.334 8.84098 22.1628 8.59394 21.9326 8.41057C21.7024 8.2272 21.4233 8.1156 21.1301 8.08968L15.5623 7.60968L13.3798 2.41968C13.2662 2.14735 13.0745 1.91473 12.829 1.75111C12.5834 1.58749 12.2949 1.50018 11.9998 1.50018C11.7047 1.50018 11.4163 1.58749 11.1707 1.75111C10.9251 1.91473 10.7335 2.14735 10.6198 2.41968L8.44389 7.60968L2.86951 8.0925C2.57517 8.11723 2.29468 8.22832 2.06322 8.41182C1.83176 8.59533 1.65964 8.84309 1.56842 9.12404C1.47721 9.40498 1.47098 9.7066 1.5505 9.99107C1.63003 10.2755 1.79177 10.5302 2.01545 10.7231L6.24451 14.4187L4.97701 19.9069C4.90999 20.1941 4.92911 20.4946 5.03199 20.771C5.13488 21.0474 5.31695 21.2874 5.55545 21.4608C5.79394 21.6343 6.07829 21.7336 6.37293 21.7464C6.66756 21.7591 6.95942 21.6847 7.21201 21.5325L11.9933 18.6262L16.7848 21.5325C17.0374 21.6847 17.3293 21.7591 17.6239 21.7464C17.9186 21.7336 18.2029 21.6343 18.4414 21.4608C18.6799 21.2874 18.862 21.0474 18.9648 20.771C19.0677 20.4946 19.0868 20.1941 19.0198 19.9069L17.7533 14.4131L21.9814 10.7231C22.205 10.5295 22.3665 10.2742 22.4454 9.98908C22.5243 9.704 22.5171 9.40196 22.4248 9.12093ZM20.9979 9.58968L16.7698 13.2797C16.564 13.4587 16.411 13.6904 16.327 13.9499C16.2431 14.2094 16.2316 14.4869 16.2936 14.7525L17.5639 20.25L12.7761 17.3437C12.5425 17.2015 12.2743 17.1262 12.0008 17.1262C11.7273 17.1262 11.459 17.2015 11.2255 17.3437L6.4442 20.25L7.70608 14.7562C7.76809 14.4906 7.75652 14.2132 7.6726 13.9537C7.58869 13.6942 7.43561 13.4624 7.22983 13.2834L2.99983 9.59531C2.99948 9.59251 2.99948 9.58967 2.99983 9.58687L8.57233 9.105C8.84439 9.08102 9.10474 8.98321 9.3253 8.82213C9.54586 8.66104 9.71826 8.4428 9.82389 8.19093L11.9998 3.0075L14.1748 8.19093C14.2805 8.4428 14.4529 8.66104 14.6734 8.82213C14.894 8.98321 15.1543 9.08102 15.4264 9.105L20.9998 9.58687C20.9998 9.58687 20.9998 9.5925 20.9998 9.59343L20.9979 9.58968Z" fill="#FFA800"/>
</g>
</svg>
