<svg width="20" height="20" viewBox="0 0 20 20" fill="none" xmlns="http://www.w3.org/2000/svg">
<g id="CaretUp">
<path id="Vector" d="M16.6925 12.9422C16.6345 13.0003 16.5656 13.0464 16.4897 13.0779C16.4138 13.1093 16.3325 13.1255 16.2503 13.1255C16.1682 13.1255 16.0869 13.1093 16.011 13.0779C15.9351 13.0464 15.8662 13.0003 15.8082 12.9422L10.0003 7.1336L4.19253 12.9422C4.07526 13.0595 3.9162 13.1254 3.75035 13.1254C3.5845 13.1254 3.42544 13.0595 3.30816 12.9422C3.19088 12.8249 3.125 12.6659 3.125 12.5C3.125 12.3342 3.19088 12.1751 3.30816 12.0578L9.55816 5.80782C9.61621 5.74971 9.68514 5.70361 9.76101 5.67215C9.83688 5.6407 9.91821 5.62451 10.0003 5.62451C10.0825 5.62451 10.1638 5.6407 10.2397 5.67215C10.3156 5.70361 10.3845 5.74971 10.4425 5.80782L16.6925 12.0578C16.7506 12.1159 16.7967 12.1848 16.8282 12.2607C16.8597 12.3365 16.8758 12.4179 16.8758 12.5C16.8758 12.5821 16.8597 12.6635 16.8282 12.7393C16.7967 12.8152 16.7506 12.8841 16.6925 12.9422Z" fill="#8C8C8C"/>
</g>
</svg>
