<svg width="16" height="10" viewBox="0 0 16 10" fill="none" xmlns="http://www.w3.org/2000/svg">
<g id="Group">
<path id="Vector" d="M1.33359 5.00018C1.33059 6.20689 1.64315 7.39341 2.24025 8.44204C2.31066 8.56347 2.33237 8.70709 2.30099 8.8439C2.26961 8.98071 2.18748 9.10051 2.07119 9.17911C2.01054 9.21908 1.9423 9.24613 1.87074 9.25857C1.79917 9.27101 1.72581 9.26857 1.65523 9.25141C1.58465 9.23425 1.51836 9.20273 1.4605 9.15881C1.40264 9.1149 1.35444 9.05954 1.31892 8.99618C0.628515 7.77753 0.265625 6.4008 0.265625 5.00018C0.265625 3.59955 0.628515 2.22282 1.31892 1.00418C1.35445 0.940824 1.40264 0.885464 1.46049 0.841548C1.51835 0.797631 1.58463 0.766097 1.6552 0.74891C1.72577 0.731724 1.79912 0.729253 1.87069 0.741652C1.94226 0.75405 2.01051 0.781052 2.07119 0.820977C2.1875 0.899625 2.26963 1.01948 2.30101 1.15633C2.33239 1.29318 2.31068 1.43684 2.24025 1.55831C1.64315 2.60694 1.33059 3.79347 1.33359 5.00018Z" fill="#E62F2B"/>
<path id="Vector_2" d="M7.99987 8.46703C9.91446 8.46703 11.4665 6.91495 11.4665 5.00036C11.4665 3.08577 9.91446 1.53369 7.99987 1.53369C6.08528 1.53369 4.5332 3.08577 4.5332 5.00036C4.5332 6.91495 6.08528 8.46703 7.99987 8.46703Z" fill="#E62F2B"/>
<g id="Group_2">
<path id="Vector_3" d="M3.46725 5.00018C3.46619 5.77116 3.66383 6.52941 4.04111 7.20178C4.11028 7.32074 4.13121 7.46169 4.09961 7.59562C4.06802 7.72955 3.98629 7.84627 3.87125 7.92178C3.81126 7.96099 3.74394 7.98763 3.67336 8.00009C3.60278 8.01255 3.53041 8.01057 3.46061 7.99427C3.39082 7.97797 3.32506 7.94769 3.2673 7.90525C3.20955 7.86281 3.161 7.80911 3.12458 7.74738C2.65051 6.90909 2.40137 5.96243 2.40137 4.99938C2.40137 4.03633 2.65051 3.08966 3.12458 2.25138C3.161 2.18965 3.20955 2.13594 3.2673 2.0935C3.32506 2.05107 3.39082 2.02078 3.46061 2.00448C3.53041 1.98818 3.60278 1.9862 3.67336 1.99866C3.74394 2.01112 3.81126 2.03776 3.87125 2.07698C3.98624 2.15253 4.06792 2.26925 4.09952 2.40316C4.13111 2.53707 4.11021 2.678 4.04111 2.79698C3.66357 3.46982 3.46591 4.22865 3.46725 5.00018ZM14.6672 5.00018C14.6702 6.20689 14.3577 7.39341 13.7606 8.44204C13.6902 8.56347 13.6685 8.70709 13.6998 8.8439C13.7312 8.98071 13.8134 9.10051 13.9296 9.17911C13.9903 9.21908 14.0585 9.24613 14.1301 9.25857C14.2017 9.27101 14.275 9.26857 14.3456 9.25141C14.4162 9.23425 14.4825 9.20273 14.5403 9.15881C14.5982 9.1149 14.6464 9.05954 14.6819 8.99618C15.3723 7.77753 15.7352 6.4008 15.7352 5.00018C15.7352 3.59955 15.3723 2.22282 14.6819 1.00418C14.6464 0.940824 14.5982 0.885464 14.5403 0.841548C14.4825 0.797631 14.4162 0.766097 14.3456 0.74891C14.2751 0.731724 14.2017 0.729253 14.1301 0.741652C14.0586 0.75405 13.9903 0.781052 13.9296 0.820977C13.8133 0.899625 13.7312 1.01948 13.6998 1.15633C13.6684 1.29318 13.6902 1.43684 13.7606 1.55831C14.3577 2.60694 14.6702 3.79347 14.6672 5.00018Z" fill="#E62F2B"/>
<path id="Vector_4" d="M12.5335 5.00031C12.5345 5.7713 12.3369 6.52954 11.9596 7.20191C11.8904 7.32087 11.8695 7.46182 11.9011 7.59575C11.9327 7.72968 12.0144 7.84641 12.1295 7.92191C12.1895 7.96112 12.2568 7.98777 12.3273 8.00023C12.3979 8.01269 12.4703 8.01071 12.5401 7.9944C12.6099 7.9781 12.6756 7.94782 12.7334 7.90538C12.7912 7.86295 12.8397 7.80924 12.8761 7.74751C13.3502 6.90923 13.5993 5.96256 13.5993 4.99951C13.5993 4.03646 13.3502 3.08979 12.8761 2.25151C12.8397 2.18978 12.7912 2.13607 12.7334 2.09364C12.6756 2.0512 12.6099 2.02092 12.5401 2.00462C12.4703 1.98832 12.3979 1.98634 12.3273 1.9988C12.2568 2.01126 12.1895 2.0379 12.1295 2.07711C12.0145 2.15266 11.9328 2.26938 11.9012 2.40329C11.8696 2.53721 11.8905 2.67813 11.9596 2.79711C12.3371 3.46995 12.5348 4.22878 12.5335 5.00031Z" fill="#E62F2B"/>
</g>
<path id="Vector_5" d="M9.38986 5.38789L7.66773 6.52016C7.59703 6.56728 7.51493 6.59445 7.43008 6.59881C7.34523 6.60318 7.26078 6.58457 7.18562 6.54496C7.11046 6.50535 7.04738 6.44619 7.00303 6.37373C6.95867 6.30127 6.93468 6.21818 6.93359 6.13323V3.86656C6.93478 3.78165 6.95883 3.69864 7.00323 3.62625C7.04762 3.55386 7.11071 3.49478 7.18585 3.45523C7.26099 3.41568 7.34541 3.39712 7.43021 3.40151C7.51502 3.4059 7.59707 3.43307 7.66773 3.48016L9.38986 4.61323C9.45429 4.65524 9.50723 4.71267 9.54387 4.7803C9.58051 4.84793 9.5997 4.92364 9.5997 5.00056C9.5997 5.07748 9.58051 5.15319 9.54387 5.22082C9.50723 5.28846 9.45429 5.34588 9.38986 5.38789Z" fill="white"/>
</g>
</svg>
