<svg width="49" height="48" viewBox="0 0 49 48" fill="none" xmlns="http://www.w3.org/2000/svg">
<g id="Group 1">
<path id="Vector" d="M48.5 24C48.5 37.1675 37.7371 47.8738 24.5 47.8738C11.2629 47.8738 0.5 37.1675 0.5 24C0.5 10.8325 11.2629 0.126221 24.5 0.126221C37.7371 0.126221 48.5 10.8325 48.5 24Z" fill="#DEA600"/>
<path id="Vector_2" d="M47.6959 23.9999C47.6959 36.7367 37.3042 47.0738 24.5001 47.0738C11.6959 47.0738 1.3042 36.7367 1.3042 23.9999C1.3042 11.2631 11.6959 0.926025 24.5001 0.926025C37.3042 0.926025 47.6959 11.2631 47.6959 23.9999Z" fill="#153D8A"/>
<path id="Vector_3" d="M41.0153 23.9992C41.0153 33.1056 33.5926 40.4278 24.4998 40.4278C15.4071 40.4278 7.98438 33.0441 7.98438 23.9992C7.98438 14.8927 15.4071 7.57056 24.4998 7.57056C33.5926 7.57056 41.0153 14.8927 41.0153 23.9992Z" fill="#DEA600"/>
<path id="Vector_4" d="M40.5207 24.0003C40.5207 32.7992 33.3455 39.9367 24.5001 39.9367C15.6547 39.9367 8.47949 32.7992 8.47949 24.0003C8.47949 15.2015 15.6547 8.06396 24.5001 8.06396C33.3455 8.06396 40.5207 15.2015 40.5207 24.0003Z" fill="white"/>
<path id="Vector_5" d="M10.7681 37.7833C10.9537 37.9679 11.3867 38.3371 11.3867 38.3371L11.7578 37.9064L10.5207 36.7373L10.3351 36.9219L8.66504 38.6447L9.2836 39.26C9.2836 39.26 9.8403 38.7063 10.0259 38.5217C10.2114 38.7063 10.5826 39.0755 10.5826 39.0755L11.0156 38.6447C11.0156 38.6447 10.6444 38.2756 10.4589 38.091C10.5826 37.9064 10.6444 37.8449 10.7681 37.7833Z" fill="#DEA600"/>
<path id="Vector_6" d="M13.7371 39.7517C13.6753 39.4441 13.4897 39.1364 13.1804 38.8903C12.8711 38.7057 12.5619 38.5826 12.1907 38.6442C11.8196 38.7057 11.5103 38.8903 11.2629 39.2595C11.0155 39.5671 10.9536 39.9363 11.0155 40.3055C11.0773 40.6132 11.2629 40.9208 11.5722 41.1054C11.8815 41.29 12.1907 41.413 12.5619 41.3515C12.933 41.29 13.2423 41.1054 13.4897 40.7362C13.6753 40.4901 13.7371 40.1824 13.7371 39.8748C13.799 39.9363 13.799 39.8133 13.7371 39.7517ZM11.9433 40.6747C11.634 40.4901 11.8815 40.0594 12.067 39.8133C12.2526 39.5671 12.5619 39.198 12.8711 39.4441C13.1804 39.6902 12.8711 40.1209 12.7474 40.3055C12.6237 40.4901 12.2526 40.9208 11.9433 40.6747Z" fill="#DEA600"/>
<path id="Vector_7" d="M15.7167 40.4273C15.0363 40.1197 14.294 40.3658 13.9229 41.0426C13.7373 41.4118 13.7373 41.781 13.7992 42.1502C13.9229 42.4578 14.1085 42.7655 14.4796 42.8886C14.7889 43.0731 15.16 43.0731 15.4693 42.9501C15.8404 42.827 16.0879 42.5809 16.2734 42.2117C16.6446 41.5349 16.3971 40.735 15.7167 40.4273ZM14.9745 42.3963C14.9126 42.3963 14.7889 42.3963 14.727 42.3963C14.6033 42.3348 14.5415 42.2117 14.5415 42.0887C14.5415 41.9041 14.6033 41.658 14.727 41.5349C14.8507 41.2888 15.0982 40.8581 15.4693 41.0426C15.5312 41.1042 15.593 41.1657 15.6549 41.2272C15.7167 41.4118 15.6549 41.658 15.5312 41.9041C15.3456 42.1502 15.16 42.3348 14.9745 42.3963Z" fill="#DEA600"/>
<path id="Vector_8" d="M17.139 41.4126L17.0153 41.7818C17.0153 41.7818 17.3246 41.9049 17.4483 41.9049C17.2628 42.2125 16.7061 43.8123 16.7061 43.8123L17.5102 44.12C17.5102 44.12 18.0669 42.5202 18.1906 42.2125C18.3143 42.274 18.6236 42.3356 18.6236 42.3356L18.8091 41.7818L17.139 41.228V41.4126Z" fill="#DEA600"/>
<path id="Vector_9" d="M20.5412 42.1514L19.4278 41.9053L19.3659 42.1514L18.8711 44.4895L19.9845 44.7357C20.3556 44.7972 20.6031 44.7357 20.7268 44.6126C20.9123 44.4895 21.036 44.305 21.0979 44.1204C21.0979 44.0588 21.0979 43.9973 21.0979 43.9358C21.0979 43.7512 21.036 43.6281 20.9742 43.5051C21.0979 43.382 21.2216 43.2589 21.2216 43.0744C21.2216 43.0128 21.2216 42.9513 21.2216 42.9513C21.2835 42.6436 21.0979 42.2745 20.5412 42.1514ZM20.2319 43.9358C20.2319 43.9973 20.1701 44.0588 20.1701 44.0588C20.1082 44.0588 20.0464 44.0588 19.9845 44.0588C19.9845 44.0588 19.9226 44.0588 19.8608 44.0588C19.9226 43.8742 19.9226 43.7512 19.9845 43.6281C20.0464 43.6281 20.1082 43.6281 20.1082 43.6281C20.2319 43.6897 20.2938 43.7512 20.2938 43.8742C20.2319 43.9358 20.2319 43.9358 20.2319 43.9358ZM20.1701 42.7052C20.2938 42.7052 20.3556 42.7667 20.3556 42.8282V42.8898V42.9513C20.3556 43.0128 20.2938 43.1359 20.1082 43.0744C20.1082 43.0744 20.1082 43.0744 20.0464 43.0744C20.1082 42.8898 20.1082 42.8282 20.1701 42.7052Z" fill="#DEA600"/>
<path id="Vector_10" d="M22.6443 42.5206L21.4072 44.9818L22.0876 45.0433C22.0876 45.0433 22.2732 44.6741 22.3351 44.4895C22.4588 44.4895 22.6443 44.4895 22.7681 44.5511C22.8299 44.7357 22.9536 45.1664 22.9536 45.1664L23.8815 45.2279L22.8918 42.0283L22.6443 42.5206Z" fill="#DEA600"/>
<path id="Vector_11" d="M25.3658 44.489C25.3658 44.1198 25.304 42.4585 25.304 42.4585H25.0565H24.438L24.5617 45.1043L26.2937 45.0428V44.4275C26.2318 44.489 25.6132 44.489 25.3658 44.489Z" fill="#DEA600"/>
<path id="Vector_12" d="M27.7783 44.2434C27.7164 43.8742 27.469 42.2744 27.469 42.2744L27.2216 42.3359L26.603 42.459L27.036 45.1048L28.768 44.8587L28.6443 44.2434C28.6443 44.1203 28.0257 44.2434 27.7783 44.2434Z" fill="#DEA600"/>
<path id="Vector_13" d="M32.7886 42.5208C32.7886 42.7669 32.6649 42.9515 32.4175 43.0131C32.2938 43.0746 32.1701 43.0746 32.1082 43.0131C31.9227 42.9515 31.7989 42.7669 31.6752 42.5208C31.5515 42.2132 31.5515 42.0286 31.6134 41.844C31.6752 41.7209 31.7371 41.6594 31.9226 41.5979C32.1082 41.5363 32.2319 41.5979 32.4794 41.7209L32.6649 41.844L32.9742 41.3517L32.7886 41.1672C32.4175 40.921 31.9845 40.8595 31.6134 41.0441C31.2422 41.1672 30.9948 41.4748 30.8711 41.7825C30.7474 42.1516 30.7474 42.5208 30.8711 42.89C31.1185 43.5668 31.9226 43.936 32.6031 43.6284C33.0979 43.4438 33.4072 43.0746 33.4072 42.5208V42.2747L32.7886 42.2132V42.5208Z" fill="#DEA600"/>
<path id="Vector_14" d="M34.8301 41.7819C34.6445 41.4743 33.8404 39.9976 33.8404 39.9976L33.6548 40.1206L33.0981 40.4283L34.3971 42.7664L35.9435 41.905L35.6342 41.3512C35.6342 41.3512 35.0775 41.6589 34.8301 41.7819Z" fill="#DEA600"/>
<path id="Vector_15" d="M36.5619 38.2139L36.3763 38.3369L36.067 38.583L37.1186 40.0598C37.1804 40.1213 37.1804 40.1828 37.1804 40.1828C37.1804 40.2444 37.1186 40.3674 36.9949 40.3674C36.933 40.3674 36.8711 40.429 36.8093 40.429C36.7474 40.429 36.6856 40.3674 36.6856 40.3674L35.634 38.9522L34.9536 39.4445L36.0052 40.8597C36.1907 41.0443 36.3763 41.2289 36.5619 41.2289C36.8093 41.2904 37.1186 41.1673 37.366 40.9827C37.9227 40.552 37.9227 40.0598 37.6753 39.6906L36.5619 38.2139Z" fill="#DEA600"/>
<path id="Vector_16" d="M39.7783 37.6587C39.5927 37.4741 39.4072 37.4126 39.2216 37.4126C39.2216 37.228 39.1597 37.1049 39.036 36.9819C38.7886 36.7358 38.2938 36.5512 37.8608 37.0434L37.0566 37.8433L38.9123 39.7508L39.7783 38.9509C40.0257 38.7047 40.0876 38.4586 40.0876 38.274C40.0257 38.0279 39.9639 37.8433 39.7783 37.6587ZM38.4175 37.5972C38.4175 37.5972 38.4793 37.6587 38.4793 37.7203C38.4793 37.7818 38.4793 37.7818 38.4175 37.8433C38.4175 37.8433 38.4175 37.8433 38.3556 37.9048C38.2319 37.7818 38.2319 37.7203 38.1082 37.6587C38.2319 37.4741 38.3556 37.5357 38.4175 37.5972ZM38.8505 38.274C38.9742 38.151 39.1597 38.274 39.1597 38.274C39.2216 38.3356 39.2216 38.3971 39.2216 38.3971C39.2216 38.4586 39.1597 38.5201 39.0979 38.5817C39.0979 38.5817 39.0979 38.6432 39.036 38.6432C38.9123 38.5201 38.8505 38.4586 38.7267 38.3356C38.7886 38.3356 38.8505 38.274 38.8505 38.274Z" fill="#DEA600"/>
<path id="Vector_17" d="M10.7679 37.5372C10.8298 37.5987 11.3865 38.0909 11.3865 38.0909L11.5721 37.9064L10.5205 36.9834L8.97412 38.5832L9.34525 38.9524C9.34525 38.9524 10.0257 38.2755 10.0875 38.214C10.1494 38.2755 10.6442 38.7678 10.6442 38.7678L10.8298 38.5832C10.8298 38.5832 10.3349 38.0909 10.2731 38.0294C10.3349 37.9679 10.7061 37.5987 10.7679 37.5372Z" fill="white"/>
<path id="Vector_18" d="M13.1183 39.0744C12.8709 38.8898 12.5616 38.8282 12.3142 38.8898C12.0049 38.9513 11.6957 39.1359 11.5101 39.382C11.3245 39.6897 11.2008 39.9973 11.2627 40.305C11.3245 40.6126 11.4482 40.8587 11.6957 41.0433C11.9431 41.2279 12.2524 41.2895 12.5616 41.2279C12.8709 41.1664 13.1802 40.9818 13.3658 40.7357C13.5513 40.4896 13.6132 40.2434 13.6132 39.9973C13.6132 39.9358 13.6132 39.8743 13.6132 39.8127C13.5513 39.5051 13.3658 39.259 13.1183 39.0744ZM12.9328 40.3665C12.7472 40.6126 12.3142 41.1049 11.8812 40.7972C11.4482 40.4896 11.8194 39.9358 11.9431 39.6897C12.1287 39.4435 12.5616 38.9513 12.9946 39.259C13.4276 39.5666 13.0565 40.1819 12.9328 40.3665Z" fill="white"/>
<path id="Vector_19" d="M15.6549 40.5519C15.0982 40.2442 14.4178 40.4903 14.1085 41.1057C13.923 41.4133 13.923 41.7825 14.0467 42.0286C14.1085 42.3363 14.3559 42.5208 14.6034 42.6439C14.8508 42.767 15.1601 42.8285 15.4693 42.7054C15.7786 42.5824 16.026 42.3978 16.2116 42.0901C16.459 41.5364 16.2116 40.8595 15.6549 40.5519ZM14.6652 42.5209C14.1704 42.2747 14.4178 41.6594 14.6034 41.4133C14.7271 41.1672 15.0982 40.6134 15.5312 40.798C15.6549 40.8595 15.7168 40.9826 15.7786 41.0441C15.9023 41.3518 15.7168 41.6594 15.5931 41.9055C15.4693 42.0901 15.2838 42.4593 15.0364 42.5209C14.9126 42.5824 14.7889 42.5824 14.6652 42.5209Z" fill="white"/>
<path id="Vector_20" d="M17.2629 41.4741L17.201 41.6587C17.201 41.6587 17.5103 41.7818 17.634 41.7818C17.5722 41.9048 16.9536 43.6892 16.9536 43.6892L17.4485 43.8738C17.4485 43.8738 18.067 42.0279 18.1289 41.9664C18.1907 41.9664 18.5619 42.0894 18.5619 42.0894L18.6237 41.8433L17.2629 41.4741Z" fill="white"/>
<path id="Vector_21" d="M20.541 42.336L19.6132 42.1514V42.2129L19.1802 44.428L20.1699 44.6126C20.4173 44.6741 20.6029 44.6126 20.7884 44.5511C20.9121 44.4895 21.0358 44.3049 21.0358 44.1203C21.0358 44.0588 21.0358 43.9973 21.0358 43.9973C21.0358 43.8127 20.9121 43.6281 20.7884 43.505C20.974 43.4435 21.1596 43.3204 21.1596 43.0743C21.1596 43.0128 21.1596 43.0128 21.1596 42.9513C21.0977 42.7051 20.974 42.3975 20.541 42.336ZM20.1699 42.5205C20.3554 42.5821 20.4173 42.6436 20.4791 42.7051C20.541 42.7667 20.541 42.8282 20.541 42.8897C20.541 42.9513 20.541 42.9513 20.541 43.0128C20.4791 43.3204 20.2317 43.3204 20.108 43.2589C20.108 43.2589 19.9843 43.1974 19.8606 43.1974C19.8606 43.1359 19.9843 42.5821 19.9843 42.5205C20.108 42.5205 20.1699 42.5205 20.1699 42.5205ZM20.108 43.505C20.3554 43.5666 20.4173 43.7512 20.4173 43.8742C20.4173 43.9357 20.4173 43.9973 20.4173 43.9973C20.4173 44.1203 20.3554 44.1819 20.2936 44.2434C20.2317 44.3049 20.108 44.3049 19.9843 44.3049C19.9843 44.3049 19.7987 44.2434 19.7369 44.2434C19.7369 44.1203 19.8606 43.5666 19.9224 43.4435L20.108 43.505Z" fill="white"/>
<path id="Vector_22" d="M22.7682 42.6436L21.6548 44.8587H21.9641C21.9641 44.8587 22.2115 44.3664 22.2115 44.3049C22.2733 44.3049 22.83 44.3664 22.8919 44.3664C22.8919 44.4279 23.0775 44.9817 23.0775 44.9817L23.6342 45.0433L22.83 42.5205L22.7682 42.6436ZM22.6445 43.505C22.7063 43.6896 22.83 43.9972 22.83 44.1203C22.7063 44.1203 22.4589 44.1203 22.3352 44.0588C22.4589 43.9972 22.5826 43.6896 22.6445 43.505Z" fill="white"/>
<path id="Vector_23" d="M25.1806 44.6741C25.1806 44.551 25.1187 42.6436 25.1187 42.6436H25.0569H24.562L24.6857 44.9202L26.1084 44.8587V44.551C26.0465 44.6741 25.3043 44.6741 25.1806 44.6741Z" fill="white"/>
<path id="Vector_24" d="M27.6546 44.4895C27.6546 44.3664 27.3453 42.5205 27.3453 42.5205H27.2834L26.7886 42.582L27.1597 44.8587L28.5824 44.6125L28.5205 44.3049C28.5205 44.3049 27.7164 44.4279 27.6546 44.4895Z" fill="white"/>
<path id="Vector_25" d="M32.974 42.5197C32.974 42.8274 32.7885 43.0735 32.541 43.1966C32.3555 43.2581 32.2318 43.2581 32.0462 43.1966C31.8606 43.1351 31.6132 42.8889 31.5513 42.5813C31.4276 42.2736 31.4276 41.966 31.4895 41.7814C31.5513 41.5968 31.6751 41.4737 31.8606 41.4122C32.108 41.2891 32.3555 41.4122 32.541 41.5353H32.6029L32.7266 41.2891L32.6647 41.2276C32.3555 41.043 31.9843 40.9815 31.6751 41.1045C31.3658 41.2276 31.1184 41.4737 30.9946 41.7199C30.8709 42.0275 30.8709 42.3352 30.9946 42.7043C31.2421 43.3196 31.9225 43.6273 32.541 43.3812C32.974 43.1966 33.2214 42.8889 33.2214 42.4582V42.3967L32.974 42.5197Z" fill="white"/>
<path id="Vector_26" d="M34.7682 42.028C34.7064 41.905 33.7785 40.2437 33.7785 40.2437H33.7167L33.2837 40.4898L34.3971 42.5203L35.6342 41.8434L35.5723 41.5973C35.5723 41.5973 34.8919 41.9665 34.7682 42.028Z" fill="white"/>
<path id="Vector_27" d="M36.5 38.46L36.2526 38.6445L37.2422 39.9367C37.3041 39.9982 37.3041 40.1213 37.3041 40.1828C37.3041 40.3674 37.1185 40.4905 37.0567 40.4905C36.9948 40.552 36.8711 40.6135 36.7474 40.552C36.6237 40.552 36.5618 40.4905 36.5 40.3674L35.5721 39.1368L35.1392 39.4444L36.067 40.7366C36.1907 40.9212 36.3763 41.0442 36.5618 41.0442C36.8711 41.1058 37.1185 40.9212 37.2422 40.8596C37.6752 40.552 37.7371 40.1213 37.4897 39.8136L36.5 38.46Z" fill="white"/>
<path id="Vector_28" d="M39.6546 37.7822C39.469 37.5976 39.2216 37.5361 39.036 37.6591C39.036 37.5976 39.036 37.5361 39.036 37.4746C39.036 37.3515 38.9741 37.2284 38.8504 37.1054C38.7267 36.9823 38.2937 36.7362 37.9226 37.1669L37.2422 37.8437L38.8504 39.5051L39.5308 38.8282C39.7164 38.6436 39.7783 38.459 39.7783 38.2744C39.8401 38.0899 39.7783 37.9668 39.6546 37.7822ZM38.603 37.7207C38.603 37.8437 38.5412 37.9053 38.4793 37.9668C38.4793 37.9668 38.3556 38.0899 38.2937 38.1514C38.2319 38.0899 37.8607 37.7207 37.7989 37.6591C37.8607 37.5976 37.9226 37.5361 37.9226 37.5361C38.17 37.3515 38.3556 37.29 38.4793 37.4746C38.603 37.5976 38.603 37.6591 38.603 37.7207ZM39.0979 38.9513C39.036 38.8897 38.603 38.459 38.5412 38.3975C38.603 38.336 38.7267 38.2129 38.7267 38.2129C39.036 37.9668 39.2834 38.2129 39.2834 38.2129C39.3453 38.2744 39.4071 38.3975 39.4071 38.459C39.4071 38.5821 39.3453 38.6436 39.2216 38.7667C39.2834 38.7667 39.1597 38.8897 39.0979 38.9513Z" fill="white"/>
<path id="Vector_29" d="M13.8607 8.24909L12.871 8.49521L12.9947 8.86439C13.1184 9.29511 12.9947 9.72582 12.6854 10.0335C12.4998 10.2181 12.3143 10.2796 12.0668 10.2796C11.6957 10.2796 11.3246 10.0335 11.0153 9.66429C10.6442 9.23358 10.4586 8.86439 10.4586 8.49521C10.4586 8.24909 10.5823 8.00297 10.8297 7.81838C11.0772 7.57226 11.4483 7.57226 11.8813 7.69532L12.1906 7.75685L12.3761 6.83389L12.0668 6.77236C11.3246 6.58777 10.5823 6.77236 10.0875 7.26461C9.03592 8.18756 8.97406 9.66429 9.9019 10.7103C10.7679 11.6948 12.2524 11.8179 13.2421 10.9564C13.9225 10.3411 14.1699 9.54123 13.9844 8.6798L13.8607 8.24909Z" fill="#DEA600"/>
<path id="Vector_30" d="M16.4588 3.38698L15.4691 3.87922C15.4691 3.87922 16.0258 5.0483 16.2114 5.41748C15.9021 5.54054 15.6547 5.6636 15.3454 5.78666C15.1599 5.35595 14.6032 4.2484 14.6032 4.2484L13.3042 4.8637L15.2836 9.04777L16.5825 8.43246C16.5825 8.43246 15.964 7.14033 15.7784 6.70961C16.0877 6.58655 16.3351 6.46349 16.6444 6.34043C16.83 6.77115 17.4485 8.06328 17.4485 8.06328L18.7475 7.44798L16.7681 3.26392L16.4588 3.38698Z" fill="#DEA600"/>
<path id="Vector_31" d="M20.9124 6.03291C20.8505 5.72525 20.7886 5.4176 20.7268 5.10995C21.1598 5.04842 22.2113 4.8023 22.2113 4.8023L22.0258 3.87934C22.0258 3.87934 20.9742 4.06394 20.5412 4.187C20.4794 3.87934 20.4175 3.63322 20.3557 3.3871C20.7886 3.32557 21.902 3.07945 21.902 3.07945L21.7165 2.15649L21.3453 2.21802L18.6855 2.7718L19.6134 7.32504L22.6443 6.70974L22.4587 5.78678C22.4587 5.66372 21.2835 5.90985 20.9124 6.03291Z" fill="#DEA600"/>
<path id="Vector_32" d="M25.1803 1.97192H23.7577V2.34111L23.6958 6.64823L26.7267 6.70976V5.72527C26.7267 5.72527 25.5515 5.72527 25.1185 5.66374C25.0566 5.04844 25.1803 1.97192 25.1803 1.97192Z" fill="#DEA600"/>
<path id="Vector_33" d="M29.8198 4.31002C29.4486 4.0639 29.3249 3.94084 29.3868 3.75625C29.3868 3.69472 29.5105 3.4486 29.7579 3.51013C29.9435 3.57166 30.0672 3.63319 30.1291 4.00237L30.1909 4.37155L31.1187 4.0639L31.0569 3.75625C30.9332 3.14095 30.4383 2.6487 29.8198 2.52564C29.3868 2.40258 28.8919 2.46411 28.5827 2.71023C28.2734 2.89482 28.026 3.20247 27.9022 3.63319C27.6548 4.55614 28.3352 5.04839 28.7064 5.35604C29.1394 5.66369 29.2631 5.78675 29.2012 6.03287C29.2012 6.0944 29.1394 6.15593 29.0775 6.21746C29.0157 6.27899 28.8919 6.27899 28.7682 6.27899C28.5208 6.21746 28.459 6.0944 28.3352 5.84828L28.2115 5.4791L27.2837 5.84828L27.4074 6.15593C27.593 6.77123 28.026 7.14042 28.7064 7.26348C29.5105 7.44807 30.4383 7.07889 30.6858 6.15593C30.9332 5.10992 30.2528 4.61767 29.8198 4.31002Z" fill="#DEA600"/>
<path id="Vector_34" d="M33.2836 6.7711C33.6547 6.95569 34.6444 7.44793 34.6444 7.44793L35.0774 6.58651C35.0774 6.58651 34.0877 6.09426 33.7166 5.90967C33.8403 5.66355 33.964 5.41743 34.0877 5.17131C34.4589 5.3559 35.5104 5.90967 35.5104 5.90967L35.9434 5.04825L33.2217 3.69458L33.0362 4.00223L31.1187 7.81711L33.8403 9.17078L34.2733 8.30935C34.2733 8.30935 33.2217 7.75558 32.8506 7.57099C32.9743 7.3864 33.1599 7.07875 33.2836 6.7711Z" fill="#DEA600"/>
<path id="Vector_35" d="M38.6649 7.20317L34.335 9.41827L35.1391 10.1566C35.1391 10.1566 35.8814 9.78745 36.1288 9.66439C36.3143 9.84898 36.6236 10.0951 36.8092 10.2182C36.6855 10.4643 36.4381 11.2642 36.4381 11.2642L37.6133 12.2487L39.469 6.77246L38.6649 7.20317Z" fill="#DEA600"/>
<path id="Vector_36" d="M13.6753 8.55608L13.1804 8.67914L13.2423 8.8022C13.4279 9.29445 13.2423 9.84822 12.8712 10.2174C12.6237 10.402 12.3763 10.5251 12.067 10.4635C11.634 10.4635 11.2011 10.1559 10.8299 9.78669C10.3969 9.29444 10.2114 8.86373 10.2114 8.43302C10.2114 8.12537 10.3969 7.81772 10.6444 7.5716C11.0155 7.26394 11.4485 7.32547 11.8815 7.387H12.0052L12.1289 6.89476H12.0052C11.3866 6.71017 10.7062 6.89476 10.2114 7.32547C9.28353 8.12537 9.15982 9.47904 10.0258 10.4635C10.8299 11.3249 12.1907 11.448 13.0567 10.7096C13.6753 10.1559 13.9227 9.47904 13.6753 8.67914V8.55608Z" fill="white"/>
<path id="Vector_37" d="M16.5828 3.63307L15.7787 4.00225C15.7787 4.00225 16.4591 5.41745 16.521 5.60204C16.3354 5.66357 15.4076 6.09428 15.2839 6.21734C15.222 6.03275 14.5416 4.67909 14.5416 4.67909L13.6138 4.98674L15.4076 8.74009L16.2736 8.30937C16.2736 8.30937 15.5313 6.77112 15.4694 6.58653C15.655 6.525 16.5828 6.09428 16.7066 5.97122C16.7684 6.15581 17.5107 7.69407 17.5107 7.69407L18.3767 7.26336L16.5828 3.51001V3.63307Z" fill="white"/>
<path id="Vector_38" d="M20.7266 6.27901C20.6647 6.09441 20.4792 5.0484 20.4173 4.86381C20.6029 4.80228 21.9018 4.55616 21.9018 4.55616L21.7781 4.06391C21.7781 4.06391 20.4792 4.31003 20.2936 4.37157C20.2317 4.18697 20.0462 3.26402 20.0462 3.07943C20.2936 3.07943 21.6544 2.83331 21.6544 2.83331L21.5307 2.34106H21.407L18.9946 2.83331L19.7988 6.95584L22.3348 6.4636L22.273 5.97135C22.273 5.97135 20.9122 6.21748 20.7266 6.27901Z" fill="white"/>
<path id="Vector_39" d="M24.9329 2.21802H23.9432V2.34108L23.8813 6.40208L26.4793 6.46361V5.90984C26.4793 5.90984 25.1185 5.90984 24.871 5.84831C24.8092 5.60219 24.9329 2.21802 24.9329 2.21802Z" fill="white"/>
<path id="Vector_40" d="M29.8196 3.32507C30.1289 3.3866 30.3144 3.63272 30.3763 4.00191V4.12497L30.8711 3.94037V3.81731C30.7474 3.32507 30.3144 2.89436 29.8196 2.7713C29.4484 2.64824 29.0155 2.70977 28.7062 2.89436C28.3969 3.07895 28.2113 3.32507 28.1495 3.63272C27.9639 4.43262 28.4588 4.8018 28.8917 5.10945C29.3247 5.4171 29.5722 5.6017 29.4484 6.03241C29.3866 6.217 29.2629 6.34006 29.201 6.34006C29.0773 6.40159 28.8917 6.46312 28.768 6.40159C28.4588 6.34006 28.2732 6.15547 28.1495 5.78629L28.0876 5.66323L27.5928 5.90935V6.03241C27.7165 6.52465 28.1495 6.8323 28.7062 7.01689C29.3866 7.20148 30.1907 6.89383 30.3763 6.09394C30.5618 5.23251 30.0051 4.86333 29.5722 4.49415C29.201 4.1865 28.9536 4.00191 29.0155 3.69425C29.201 3.44813 29.4484 3.20201 29.8196 3.32507Z" fill="white"/>
<path id="Vector_41" d="M33.9638 4.86362C34.1494 4.92515 35.3865 5.60199 35.3865 5.60199L35.6339 5.17127L33.3453 4.0022L33.2834 4.12526L31.4277 7.75555L33.7782 8.92463L34.0257 8.49391C34.0257 8.49391 32.7267 7.87861 32.603 7.75555C32.6648 7.57096 33.1597 6.648 33.2215 6.46341C33.4071 6.52494 34.5824 7.14024 34.5824 7.14024L34.8298 6.70953C34.8298 6.70953 33.6545 6.09423 33.469 6.0327C33.469 5.90964 33.902 5.04821 33.9638 4.86362Z" fill="white"/>
<path id="Vector_42" d="M38.7887 7.44923L34.7681 9.54126L35.2011 9.91044C35.2011 9.91044 36.067 9.47973 36.1907 9.4182C36.3145 9.47973 36.9949 10.095 37.1186 10.2181C37.0567 10.3412 36.7475 11.2641 36.7475 11.2641L37.4897 11.9409L39.0361 7.3877L38.7887 7.44923ZM36.6237 9.17207C36.8093 9.04901 37.3042 8.80289 37.6134 8.67983C37.4897 8.98748 37.3041 9.54126 37.2423 9.72585C37.1186 9.54126 36.8093 9.29514 36.6237 9.17207Z" fill="white"/>
<path id="Vector_43" d="M35.9434 23.3843C35.6341 22.5229 34.4589 22.1537 33.4073 22.5229C32.9743 22.7075 32.6032 22.9536 32.3558 23.3228C33.0981 21.2923 35.9434 20.8616 35.9434 19.0157C35.9434 15.8776 31.4279 16.739 32.1084 19.0157C32.1084 17.9697 33.7785 17.7851 33.7785 19.0157C33.7785 20.2463 30.8712 21.0462 30.8712 23.0767C30.8712 25.3533 33.1599 25.5379 32.9125 27.6299C32.8506 27.9991 32.4795 28.4298 31.9228 28.4298C28.397 28.4298 29.696 24.1227 28.4589 22.8306L28.5207 21.9691C29.2011 22.3998 31.1187 21.4154 29.8816 19.8771C29.8816 20.6155 28.2733 20.6155 28.2733 19.1387C28.2733 17.2313 30.0671 18.2158 30.1908 18.6465C30.129 17.9697 30.0671 17.4774 30.1908 17.1082C29.2011 17.4159 29.1393 16.8621 29.263 16.616C29.3867 16.3699 29.5723 16.0622 30.0053 16.0622C30.1908 16.0622 30.3145 16.0622 30.4383 16.1237C30.562 16.1853 30.6238 16.0007 30.6238 16.1853C30.7475 16.0007 30.6857 16.2468 30.8094 16.0622C30.9331 15.8776 31.0568 15.7546 31.3042 15.5084V15.1393L31.6135 15.2623L31.8609 14.8316C31.5517 14.2163 31.1805 14.524 30.8712 13.7856C30.6238 13.7241 26.7888 14.1548 26.9125 12.6165C26.6032 12.6165 25.8609 12.8011 26.2939 13.4164C25.9228 13.4779 25.6754 13.0472 25.1187 14.1548C25.7991 14.0317 25.4279 14.7701 25.4279 15.0162C25.4279 16.4314 23.5723 16.3699 23.5723 15.7546C23.1393 16.1853 23.3867 17.1082 24.0671 17.3544C24.0671 17.3544 23.8197 18.3388 23.2011 19.0157C22.2733 18.9541 20.7269 18.8311 19.8609 17.9697C19.4898 17.6005 19.1805 17.4159 18.9331 17.3544V16.9236C19.3042 16.7391 19.7372 16.4314 20.1084 15.8776C20.4176 15.4469 20.6032 14.9547 20.5414 14.4009C20.5414 14.3394 20.5414 14.2778 20.5414 14.2163V14.1548C20.5414 14.0932 20.5414 14.0932 20.4795 14.0317V13.9702C20.4795 13.9087 20.4795 13.9087 20.4176 13.8471V13.7856C20.4176 13.7241 20.3558 13.6625 20.3558 13.601C20.3558 13.601 20.3558 13.5395 20.2939 13.5395C20.2939 13.4779 20.2321 13.4779 20.2321 13.4164L20.1702 13.3549L20.1084 13.2934L20.0465 13.2318C20.0465 13.2318 20.0465 13.1703 19.9847 13.1703C19.9228 13.1088 19.8609 13.0472 19.7991 12.9857C19.7372 12.9857 19.7372 12.9242 19.6754 12.9242C19.6135 12.9242 19.6135 12.8626 19.5517 12.8626C19.1805 12.6165 18.6857 12.4935 18.1908 12.555C16.9537 12.678 16.0877 13.6625 16.1496 14.8316C16.2115 15.7546 16.8919 16.4314 17.7578 16.6775C17.4486 16.8621 17.2011 16.9236 17.1393 16.9236C17.1393 16.9236 17.1393 16.9236 17.2011 16.9236C17.2011 16.9236 17.2011 16.9236 17.263 16.9236H17.3249H17.3867C17.4486 16.9236 17.5104 16.9852 17.5723 16.9852H17.6341C17.696 16.9852 17.696 16.9852 17.7578 16.9852V17.2313C17.7578 17.2313 17.7578 17.2313 17.696 17.2313C17.3249 17.2928 17.0156 17.4159 16.9537 17.7851C16.83 18.1542 16.9537 18.2773 17.1393 18.5234C16.9537 18.8311 16.5826 18.8926 17.0774 19.5079C17.0156 19.754 17.0774 20.1232 17.4486 20.2463C17.5723 20.3078 17.6341 20.3078 17.7578 20.3078V24.9226C17.4486 25.1072 17.263 25.3533 17.1393 25.5379C17.1393 25.5379 16.8919 24.9226 16.8919 26.1532C17.2011 25.9071 17.0774 26.3993 17.0774 26.3993C16.6444 26.9531 17.2011 26.8916 17.2011 26.8916C17.5723 26.5224 17.5104 27.0761 17.5104 27.0761C17.5104 27.6915 17.7578 27.9376 17.7578 27.9376V31.4448H17.4486V32.4293H18.0053C17.696 32.5523 17.5104 32.86 17.5104 33.1677C17.5723 33.5984 17.9434 33.906 18.3764 33.8445C18.8094 33.783 19.1187 33.4753 19.1187 33.0446C19.1187 32.7369 18.9331 32.5523 18.6238 32.4293H19.1187V31.4448H18.8094V28.3068C18.8712 28.3683 18.9331 28.3683 18.995 28.3683H19.0568C19.0568 28.3683 19.0568 28.3683 19.1187 28.3683C19.0568 27.9376 19.3042 27.6915 19.3042 27.6915C19.4279 27.5069 19.6135 27.3838 19.7991 27.2607C20.4176 26.9531 21.2836 27.0146 21.531 27.5069C23.1393 27.0761 24.5001 25.4764 24.5001 25.4764L25.3042 26.83C23.6341 27.3838 19.9847 30.5218 22.5207 31.6294C22.5207 31.937 22.4589 34.3367 20.9743 34.1521C18.8094 33.906 18.2527 34.7674 18.6238 35.8135C18.4383 36.6749 19.0568 36.9825 19.0568 36.9825C18.9331 36.4903 19.1805 36.0596 20.1084 36.0596C20.1084 36.9825 20.6651 37.1056 20.6651 37.1056C20.6651 36.3057 21.2218 36.0596 21.7166 36.0596C21.7166 36.6749 22.4589 36.921 22.4589 36.921C22.4589 36.921 22.2733 36.1826 23.1393 36.0596C25.2424 35.6904 23.263 33.5368 26.4795 32.9215C26.4795 32.9215 24.8712 32.6754 24.8712 31.814C24.8712 31.0141 26.3558 30.4603 26.8506 30.4603C27.9022 32.4293 29.0156 32.4293 29.263 32.4293C29.696 32.9215 29.5723 34.6444 28.8919 34.5828C26.4795 34.4598 26.5414 35.9365 26.8506 36.1826C26.8506 36.7364 27.2836 37.1056 27.2836 37.1056C27.2836 36.4903 27.8403 36.3057 28.5826 36.3672C28.5207 37.1056 29.0156 37.2287 29.0156 37.2287C29.0156 36.4903 29.5723 36.3672 30.0053 36.3672C30.0053 36.8595 30.5001 37.0441 30.5001 37.0441C30.5001 37.0441 30.4383 36.3672 31.1805 36.3672C32.5414 36.3672 30.562 33.5368 33.1599 30.7064C30.9331 31.8755 29.696 29.2297 29.696 28.7375C30.8712 30.0911 34.7063 30.3988 34.7063 28.0606C34.7063 25.8455 32.2321 24.9841 33.4073 24.1227C34.0877 23.6304 35.3867 24.6149 34.6444 25.6609C35.696 25.2918 36.3145 24.2458 35.9434 23.3843ZM21.3455 23.4459C20.4795 23.9381 19.9228 24.6149 19.1187 24.8611C18.995 24.9226 18.9331 24.9226 18.8094 24.9226V20.5539C18.995 20.5539 19.5517 20.677 20.1702 20.9231C20.7888 21.2923 20.7888 21.9691 19.9847 22.1537C20.4795 23.0767 22.2115 22.646 22.5826 21.8461C22.7682 21.8461 22.9537 22.1537 23.0774 22.4614C22.9537 22.5844 22.4589 22.8306 21.3455 23.4459ZM30.995 16.2468C30.8712 16.3699 30.8094 16.4929 30.7475 16.616C30.995 16.9852 31.3661 17.2313 31.7991 17.1698C32.4176 17.1082 32.8506 16.5545 32.8506 15.9392V15.8776C32.7888 16.1853 32.4176 16.4929 31.9228 16.4929C31.5517 16.4929 31.1805 16.4314 30.995 16.2468Z" fill="#DADADA"/>
<path id="Vector_44" d="M17.0773 13.6018V13.5403C17.1392 13.5403 17.0773 13.6018 17.0773 13.6018ZM16.768 31.7533H17.3247C17.2629 31.7533 17.201 31.8148 17.1392 31.8763C17.201 31.8763 17.2629 31.8148 17.3247 31.8148C17.5722 31.8148 17.8196 32.0609 17.8196 32.3071C17.8196 32.5532 17.5722 32.7993 17.3247 32.7993C17.0773 32.7993 16.8917 32.6762 16.8299 32.4301V32.4916C16.8917 32.9224 17.2629 33.23 17.6959 33.1685C18.1289 33.1069 18.4381 32.7993 18.4381 32.3686C18.4381 32.0609 18.2526 31.8763 17.9433 31.7533H18.4381V30.7688H18.1289V27.6307C17.8196 27.5077 17.6959 27.1385 17.7577 26.8309C17.9433 26.8309 18.1289 26.8924 18.1907 26.9539C18.0051 27.3231 18.4381 27.7538 18.4381 27.7538C18.3763 27.3231 18.6237 27.077 18.6237 27.077C18.7474 26.8924 18.933 26.7693 19.1185 26.6463C19.7371 26.3386 20.6031 26.4001 20.8505 26.8924C22.4588 26.4617 23.8196 24.8619 23.8196 24.8619L24.6237 26.2155C26.4794 26.2155 25.8608 24.8619 25.7371 24.7388C26.1701 24.7388 26.7886 25.0465 26.7886 25.7233C26.7886 27.4462 21.8402 27.6923 21.8402 29.7228C21.8402 30.5842 22.7062 30.8919 22.7062 30.8919C22.7062 32.7993 21.4072 33.9068 20.5412 33.9068C19.1185 33.9068 18.0051 33.5992 18.0051 35.1374H18.5C18.0051 35.6297 18.5 36.3065 18.5 36.3065C18.3144 35.8143 18.5618 35.4451 19.4897 35.4451H20.0464C19.6752 35.8143 19.9227 36.368 20.0464 36.4911C20.0464 35.6912 20.6031 35.4451 21.0979 35.4451H21.5309C21.4072 35.5682 21.5928 36.0604 21.8402 36.3065C21.8402 36.3065 21.6546 35.5682 22.5206 35.4451C24.6237 35.0759 22.6443 32.9224 25.8608 32.3071C25.8608 32.3071 24.2526 32.0609 24.2526 31.1995C24.2526 30.3996 25.7371 29.8458 26.2319 29.8458C26.6031 29.7843 26.9742 29.7843 27.3453 29.8458C27.4691 31.138 28.9536 31.0764 29.2629 31.0764C30.5 32.3071 28.9536 34.276 28.9536 34.276C27.0361 34.276 26.2938 34.5221 26.2938 35.6297H26.6031C26.4175 35.8143 26.5412 36.3681 26.6649 36.5526C26.6649 35.9373 27.2216 35.7527 27.9639 35.8143H28.335C28.1495 35.9989 28.1495 36.4911 28.3969 36.6757C28.3969 35.9373 28.9536 35.8143 29.3866 35.8143H29.6959C29.5722 35.9373 29.6959 36.3065 29.8814 36.4911C29.8814 36.4911 29.8196 35.8143 30.5618 35.8143C31.9227 35.8143 29.9433 32.9839 32.5412 30.1535C30.2526 31.1995 29.0155 28.5537 29.0155 28.0615C30.1907 29.4151 34.0258 29.7228 34.0258 27.3846C34.0258 25.4772 32.2938 24.6158 32.4175 23.8774C32.4794 23.3236 32.9742 22.8314 33.5309 22.8314C34.1495 22.8314 34.6443 23.3236 34.6443 23.9389C34.6443 24.4312 34.335 24.8004 33.9639 24.9849C35.0155 24.6158 35.634 23.5697 35.3247 22.6468C35.0154 21.7238 33.8402 21.4162 32.7886 21.7854C32.3557 21.97 31.9845 22.2161 31.7371 22.5853C32.4794 20.5548 35.3247 20.124 35.3247 18.2781C35.3247 15.1401 30.8093 16.0015 31.4897 18.2781C31.4897 18.2166 31.4897 18.2166 31.4897 18.1551C31.6134 16.8629 33.9021 16.6168 33.9021 18.2781C33.9021 19.6933 30.933 20.4932 30.933 22.4007C30.933 24.3696 33.0979 24.8619 33.0979 26.9539C33.0979 27.2 32.9742 28.246 31.4897 28.246C30.067 28.246 29.3866 27.4462 29.0155 26.4617C28.2732 25.108 28.5825 22.9544 27.7783 22.093L27.8402 21.2931C28.5206 21.7238 30.4381 20.7393 29.201 19.2011C29.201 19.9395 27.5928 19.9395 27.5928 18.4627C27.5928 16.5553 29.3866 17.5398 29.5103 17.9705C29.4484 17.2937 29.3866 16.8014 29.5103 16.4322C28.5206 16.7399 28.4587 16.1861 28.5825 15.94C28.7062 15.6939 28.8917 15.3862 29.3247 15.3862C29.8814 15.3862 29.8196 15.5708 29.8196 15.8785C30.0051 15.5708 30.067 15.3247 30.5618 14.8324V14.4633L30.8711 14.5863L31.1185 14.1556C30.8093 13.5403 30.4381 13.848 30.1289 13.1096C29.8814 13.0481 26.6649 12.7404 26.7268 11.2021C26.4175 11.2021 25.6752 12.1866 26.1701 12.7404H25.4897C25.1185 12.8019 24.3144 12.5558 23.7577 13.6018C25.0567 12.3097 25.9227 15.4477 23.5103 15.4477C23.1392 15.4477 22.8299 15.3247 22.8299 15.017C22.5825 16.063 24.1289 16.3707 24.1289 16.3707C24.1289 16.6783 23.3866 18.4012 22.9536 18.7704C23.201 19.0165 23.2629 20.5548 22.0876 20.5548C22.5206 19.4472 21.2835 18.4627 20.0464 17.8474C19.799 17.7859 19.6134 17.6628 19.4278 17.5398C18.6856 17.2321 18.067 16.986 18.067 16.986V16.5553V16.1246C18.4381 15.94 18.8711 15.6323 19.2423 15.0786C19.5515 14.6478 19.7371 14.1556 19.6752 13.6018C19.6752 13.5403 19.6752 13.4788 19.6752 13.4172V13.3557C19.6752 13.2942 19.6752 13.2942 19.6134 13.2327V13.1711C19.6134 13.1096 19.6134 13.1096 19.5515 13.0481V12.9865C19.5515 12.925 19.4897 12.8635 19.4897 12.8019C19.4897 12.8019 19.4897 12.7404 19.4278 12.7404C19.4278 12.6789 19.366 12.6789 19.366 12.6173L19.3041 12.5558L19.2423 12.4943L19.1804 12.4328C19.1804 12.4328 19.1804 12.3712 19.1185 12.3712C19.0567 12.3097 18.9948 12.2482 18.933 12.1866C18.8711 12.1866 18.8711 12.1251 18.8093 12.1251C18.7474 12.1251 18.7474 12.0636 18.6856 12.0636C18.3144 11.8175 17.8196 11.6944 17.3247 11.7559C17.201 11.7559 17.1392 11.7559 17.0155 11.8175C16.335 12.0636 15.7783 12.925 15.7783 13.848C15.7783 14.7709 16.2113 15.5093 16.8917 15.8169C16.5825 16.0015 16.335 16.063 16.2732 16.063C16.2732 16.063 16.2732 16.063 16.335 16.063C16.335 16.063 16.335 16.063 16.3969 16.063C16.3969 16.063 16.4588 16.063 16.4588 16.1246H16.5206C16.5825 16.1246 16.6443 16.1861 16.7062 16.1861H16.768C16.8299 16.1861 16.8299 16.1861 16.8917 16.1861C17.1392 16.1861 17.3866 16.1246 17.3866 16.1246V16.6168C17.3247 16.6168 16.9536 16.4938 16.8917 16.3707C16.8917 16.3707 16.8917 16.3707 16.8299 16.3707C16.4588 16.4322 16.1495 16.5553 16.0876 16.9245C15.9639 17.2937 16.0876 17.4167 16.2732 17.6628C16.0876 17.9705 15.7165 18.032 16.2113 18.6473C16.1495 18.8934 16.2113 19.2626 16.5825 19.3857C16.7062 19.4472 16.768 19.4472 16.8917 19.4472C17.0773 19.4472 17.3866 19.6318 17.3866 20.001V23.9389C17.5722 23.9389 17.7577 24.0005 17.9433 24.0005V19.6318C18.1289 19.6318 18.6856 19.7549 19.3041 20.001C19.366 20.001 19.4278 20.001 19.4897 20.0625C19.9227 20.1856 20.1701 20.5548 20.0464 20.8624C19.9227 21.1701 19.5515 21.3547 19.1185 21.2316C19.6134 22.1545 21.3453 21.7238 21.7165 20.9239C21.902 20.9239 22.0876 21.2316 22.2113 21.5392C22.2113 21.5392 22.6443 21.7238 23.6959 21.7238C23.6959 21.7238 19.366 24.4927 18.1289 24.4927C17.5722 24.4927 16.3969 24.4927 16.3969 24.9234C16.0876 24.9234 15.5928 25.4772 15.5928 25.7848C15.9021 25.5387 16.1495 25.5387 16.1495 25.5387C16.3969 25.5387 16.5825 25.6002 16.5825 25.6002C16.4588 25.7233 16.0258 26.154 16.0258 26.5847C16.3969 26.2155 16.5206 26.2155 16.5206 26.2155C16.5206 26.2155 16.8917 26.154 17.0155 26.2771C16.9536 26.3386 16.768 26.7078 16.768 27.077C16.768 27.077 17.0155 26.6463 17.2629 26.6463V30.7688C17.2629 30.8919 16.7062 31.0149 16.4588 31.0149M16.9536 19.2011C16.8299 19.2011 16.768 19.078 16.768 19.0165C16.768 18.955 16.8299 18.8319 16.8917 18.8319C17.1392 18.8319 17.634 18.955 17.634 19.0165C17.6959 19.078 17.201 19.2011 16.9536 19.2011ZM16.768 18.5243C16.6443 18.5243 16.5825 18.3397 16.5825 18.2166C16.5825 18.1551 16.6443 17.9705 16.8299 17.9705C17.201 17.9705 17.8814 18.2166 17.8814 18.3397C17.8814 18.4012 17.1392 18.5858 16.768 18.5243ZM16.7062 17.6628C16.5206 17.6013 16.5206 17.4167 16.5825 17.3552C16.5825 17.2937 16.7062 17.1091 16.8917 17.1091C17.2629 17.2321 17.9433 17.6013 17.9433 17.6628C17.8814 17.7244 17.0773 17.7244 16.7062 17.6628ZM17.8814 15.2016C17.9433 15.017 17.9433 14.8324 17.8814 14.6478C17.4484 14.6478 17.0773 14.2787 17.0773 13.848C17.0773 13.7864 17.0773 13.7249 17.0773 13.6018C17.201 13.2942 17.5103 12.9865 17.8814 12.9865C18.3144 12.9865 18.6856 13.3557 18.6856 13.7864C18.6856 14.3402 18.3144 14.8324 17.8814 15.2016Z" fill="#153D8A"/>
<path id="Vector_45" d="M30.0669 15.878C30.3143 16.2472 30.6855 16.4933 31.1184 16.4318C31.737 16.3703 32.17 15.8165 32.17 15.2012V15.1396C32.1081 15.4473 31.737 15.755 31.2422 15.755C30.871 15.8165 30.5617 15.6934 30.3762 15.5088C30.1906 15.6319 30.1288 15.755 30.0669 15.878Z" fill="#E30613"/>
<path id="Vector_46" d="M28.5208 13.7861H28.892L28.7064 14.0323C28.7064 14.0938 28.459 14.1553 28.5208 13.7861ZM27.593 13.7861H28.1497C28.1497 13.7861 28.1497 14.2168 28.5208 14.2784L28.459 14.463C28.459 14.463 27.3456 14.1553 27.593 13.7861Z" fill="white"/>
<path id="Vector_47" d="M17.9435 17.6623C17.9435 17.6008 17.2631 17.1701 16.8919 17.1086C16.7064 17.047 16.6445 17.2316 16.5827 17.3547C16.5827 17.4162 16.5827 17.6623 16.7064 17.6623C17.0775 17.7239 17.8816 17.7239 17.9435 17.6623ZM17.8816 18.3392C17.8816 18.2777 17.2012 18.0315 16.8301 17.97C16.7064 17.97 16.5827 18.1546 16.5827 18.2161C16.5827 18.2777 16.6445 18.4622 16.7682 18.5238C17.1394 18.5853 17.8816 18.4007 17.8816 18.3392ZM17.0775 16.3087V16.5548C17.2012 16.6779 17.5724 16.8009 17.5724 16.8009V16.3087C17.5724 16.2472 17.3249 16.3087 17.0775 16.3087ZM16.9538 18.8314C16.8301 18.8314 16.8301 18.9545 16.8301 19.016C16.8301 19.0775 16.8919 19.2006 17.0157 19.2006C17.2631 19.2006 17.7579 19.016 17.7579 18.9545C17.6961 18.9545 17.2012 18.8314 16.9538 18.8314ZM16.3971 25.7228C15.9641 26.2766 16.2734 26.7688 16.2734 26.7688C16.2734 26.3997 16.7064 25.9074 16.8301 25.7844C16.8301 25.7844 16.7064 25.7228 16.3971 25.7228ZM17.7579 26.8304C17.6961 27.138 17.8816 27.5072 18.1291 27.6303C18.1909 27.6918 18.2528 27.6918 18.3146 27.6918H18.3765C18.3765 27.6918 18.3765 27.6918 18.4383 27.6918C18.4383 27.6918 18.0053 27.3226 18.1909 26.8919C18.1291 26.8919 17.9435 26.8304 17.7579 26.8304ZM17.0157 15.8164C16.3971 15.5088 15.9023 14.7089 15.9023 13.8475C15.9023 12.863 16.3971 12.0631 17.1394 11.817C16.0878 12.0631 15.3456 12.986 15.4074 14.0321C15.4693 14.832 16.1497 15.5703 17.0157 15.8164ZM23.7579 13.5398C24.4383 13.4168 24.6858 14.0321 24.6858 14.2167C24.6858 15.0165 24.0672 15.3857 23.5105 15.3857C25.9229 15.3857 25.1187 12.2477 23.7579 13.5398ZM22.1497 20.5543C23.3249 20.5543 23.2631 19.016 23.0157 18.7699C23.3868 18.4007 24.1909 16.6779 24.1909 16.3702C24.1909 16.3702 22.6445 16.0626 22.8919 14.955C22.4589 15.3857 22.7064 16.3087 23.3868 16.5548C23.3868 16.5548 23.1394 17.5393 22.5208 18.2161C21.9022 18.2161 20.9744 18.0931 20.2321 17.7854C21.2837 18.4622 22.5208 19.3852 22.1497 20.5543ZM17.5724 13.2322C17.8816 13.2322 18.1291 13.4168 18.1909 13.7244C18.1909 14.0321 18.0053 14.2782 17.6961 14.2782C17.3868 14.2782 17.1394 14.0936 17.0775 13.7859C17.0775 14.2167 17.4486 14.5858 17.8816 14.5858C17.9435 14.7704 17.9435 15.0165 17.8816 15.1396C18.3146 14.7704 18.6858 14.2782 18.6858 13.7859C18.6858 13.3552 18.3146 12.986 17.8816 12.986C17.5105 12.986 17.2012 13.2322 17.0775 13.6013C17.1394 13.4168 17.3249 13.2937 17.5724 13.2322ZM26.1703 12.6784C25.6136 12.1246 26.4177 11.1401 26.727 11.1401C26.4177 11.1401 25.0569 12.0016 25.4899 12.6784H26.1703ZM19.3662 21.4157C19.7992 21.5388 20.2321 21.4157 20.294 21.0465C20.4177 20.7389 20.1084 20.3697 19.7373 20.2466C19.6754 20.2466 19.6136 20.2466 19.5517 20.1851C20.1703 20.5543 20.1703 21.2311 19.3662 21.4157ZM18.1291 16.9855C18.1291 16.9855 18.7476 17.1701 19.4899 17.5393C19.3662 17.4162 19.1806 17.3547 19.0569 17.2316C18.6858 16.8625 18.3765 16.6779 18.1291 16.6163V16.9855ZM18.3765 24.6768C19.6136 24.6768 23.9435 21.9079 23.9435 21.9079C22.8919 21.9079 22.4589 21.7234 22.4589 21.7234C22.2115 21.8464 21.7167 22.0925 20.6651 22.7078C19.7992 23.2001 19.2425 23.8769 18.4383 24.123C18.3146 24.1846 18.2528 24.1846 18.1291 24.1846C17.9435 24.1846 17.7579 24.123 17.5724 24.123V20.1851C17.5724 19.7544 17.2631 19.6313 17.0775 19.6313V24.2461C16.7064 24.4307 16.5827 24.6768 16.459 24.8614C16.459 24.8614 15.8404 24.7999 15.8404 25.9689C15.8404 25.6613 16.3352 25.1075 16.6445 25.1075C16.6445 24.6768 17.8198 24.6768 18.3765 24.6768ZM29.2012 31.076C28.8919 31.076 27.4074 31.1375 27.2837 29.8454C26.9744 29.7838 26.6033 29.7838 26.1703 29.8454C27.2218 31.8143 28.3352 31.8143 28.5827 31.8143C29.0156 32.3066 28.8919 34.0294 28.2115 33.9679C25.7992 33.8448 25.861 35.3216 26.1703 35.5677C26.1703 34.4601 26.9126 34.214 28.8301 34.214C28.8919 34.2755 30.4383 32.3066 29.2012 31.076ZM29.6961 35.7523H29.3868C29.3868 36.2445 29.8816 36.4291 29.8816 36.4291C29.6961 36.306 29.5723 35.8753 29.6961 35.7523ZM26.6651 36.4906C26.5414 36.3676 26.4177 35.8138 26.6033 35.5677H26.2321C26.2321 36.183 26.6651 36.4906 26.6651 36.4906ZM33.8404 18.2777C33.8404 16.6163 31.5517 16.8625 31.428 18.1546C31.5517 17.2316 33.0981 17.047 33.0981 18.2777C33.0981 19.5083 30.1909 20.3082 30.1909 22.3387C30.1909 24.6153 32.4796 24.7999 32.2321 26.8919C32.1703 27.2611 31.7992 27.6918 31.2425 27.6918C30.0672 27.6918 29.3868 27.1996 29.0156 26.4612C29.3868 27.5072 30.0672 28.2456 31.4899 28.2456C32.9126 28.2456 33.0981 27.1996 33.0981 26.9534C33.0981 24.8614 30.9332 24.3692 30.9332 22.4002C30.8713 20.5543 33.8404 19.7544 33.8404 18.2777ZM16.8301 26.3997C16.8301 27.015 17.0775 27.2611 17.0775 27.2611C17.0775 26.8919 17.2631 26.5227 17.3249 26.4612C17.2012 26.3381 16.8301 26.3997 16.8301 26.3997ZM33.5311 22.8309C32.9744 22.8309 32.4796 23.2616 32.4177 23.8769C32.4177 23.7539 32.5414 23.6308 32.727 23.4462C33.4074 22.954 34.7064 23.9384 33.9641 24.9845C34.3971 24.7999 34.6445 24.4307 34.6445 23.9384C34.6445 23.3231 34.1497 22.8309 33.5311 22.8309ZM28.3971 35.7523H28.026C27.9641 36.4906 28.4589 36.6137 28.4589 36.6137C28.2115 36.4291 28.1497 35.9984 28.3971 35.7523ZM17.3249 31.8143C17.2631 31.8143 17.2012 31.8143 17.1394 31.8759C16.9538 31.9989 16.8301 32.245 16.8301 32.4912C16.8919 32.6757 17.0775 32.8603 17.3249 32.8603C17.5724 32.8603 17.8198 32.6142 17.8198 32.3681C17.8198 32.0604 17.5724 31.8143 17.3249 31.8143ZM20.0466 35.4446H19.4899C19.4899 36.3676 20.0466 36.4906 20.0466 36.4906C19.9229 36.306 19.6754 35.7523 20.0466 35.4446ZM21.8404 29.7223C21.8404 27.6303 26.7888 27.4457 26.7888 25.7228C26.7888 25.046 26.1703 24.7383 25.7373 24.7383C25.861 24.8614 26.4796 26.2151 24.6239 26.2151C22.9538 26.7688 19.3043 29.9069 21.8404 31.0144C21.8404 31.3221 21.7785 33.7218 20.294 33.5372C18.1291 33.2911 17.5724 34.1525 17.9435 35.1985C17.9435 33.6602 19.0569 33.9679 20.4796 33.9679C21.3455 33.9679 22.6445 32.8603 22.6445 30.9529C22.7064 30.8914 21.8404 30.5837 21.8404 29.7223ZM17.5724 31.0144V26.8304C17.2631 26.8304 17.0775 27.2611 17.0775 27.2611V30.7683H16.7682V31.199C17.0157 31.2606 17.5724 31.1375 17.5724 31.0144ZM18.4383 36.306C18.4383 36.306 18.0053 35.6292 18.4383 35.137H17.9435C17.7579 35.9984 18.4383 36.306 18.4383 36.306ZM21.5311 35.4446H21.0981C21.0981 36.0599 21.8404 36.306 21.8404 36.306C21.593 36.0599 21.4074 35.5677 21.5311 35.4446Z" fill="#737DB7"/>
<path id="Vector_48" d="M7.67526 28.5533V28.4918V28.4302C7.6134 28.1226 7.55155 27.5688 7.11856 27.5073C6.99485 27.5073 6.87114 27.5073 6.74742 27.5688C6.80928 27.4458 6.74742 27.3227 6.74742 27.1996C6.56186 26.7689 6.00516 26.7689 5.69588 26.7689H5.63402H5.57217C5.26289 26.7074 4.70619 26.5843 4.52062 27.0151C4.45876 27.1381 4.45877 27.2612 4.45877 27.3842C4.33505 27.3227 4.21134 27.2612 4.08763 27.2612C3.65464 27.2612 3.46907 27.8149 3.40722 28.1226V28.1841L3.34536 28.2457C3.22165 28.4918 2.91237 28.984 3.22165 29.3532C3.28351 29.4147 3.40722 29.4763 3.53093 29.5378C3.40722 29.5993 3.34536 29.7224 3.34536 29.8454C3.22165 30.2762 3.7165 30.5838 3.96392 30.7684L4.02578 30.8299L4.08763 30.8915C4.2732 31.1376 4.70619 31.5068 5.07732 31.3222C5.20103 31.2606 5.26289 31.1991 5.32474 31.0761C5.3866 31.1991 5.44846 31.3222 5.57217 31.3837C5.9433 31.6298 6.37629 31.2606 6.62371 31.1376L6.68557 31.0761L6.74742 31.0145C6.99485 30.8915 7.55155 30.6453 7.48969 30.2146C7.48969 30.0916 7.42784 29.9685 7.36598 29.907C7.48969 29.907 7.6134 29.8454 7.73712 29.7839C7.98454 29.3532 7.79897 28.861 7.67526 28.5533Z" fill="white"/>
<path id="Vector_49" d="M5.75781 28.9225C8.23204 30.3992 7.48977 28.7994 7.42792 28.5533C7.36606 28.3072 7.36606 26.5228 5.75781 28.9225Z" fill="#E30613"/>
<path id="Vector_50" d="M5.57244 29.2913C4.95388 32.0601 6.25285 30.891 6.43842 30.768C6.68584 30.5834 8.35594 30.0296 5.57244 29.2913Z" fill="#E30613"/>
<path id="Vector_51" d="M5.2013 29.2297C2.35594 29.4759 3.90233 30.3373 4.0879 30.5219C4.27347 30.6449 5.32501 32.1217 5.2013 29.2297Z" fill="#E30613"/>
<path id="Vector_52" d="M5.13924 28.8611C4.02583 26.2153 3.6547 27.9997 3.59285 28.1843C3.46913 28.4304 2.41759 29.8456 5.13924 28.8611Z" fill="#E30613"/>
<path id="Vector_53" d="M45.9636 28.1844L45.9018 28.0614V27.9998C45.8399 27.6922 45.6543 27.1999 45.2213 27.1384C45.0976 27.1384 44.9739 27.1384 44.8502 27.2615C44.8502 27.1384 44.8502 27.0153 44.7884 26.8923C44.5409 26.5231 43.9842 26.6462 43.7368 26.6462H43.675H43.6131C43.3038 26.6462 42.7471 26.6462 42.5616 27.0769C42.4997 27.1999 42.4997 27.323 42.5616 27.446C42.4378 27.3845 42.3141 27.3845 42.1904 27.3845C41.7574 27.5076 41.6956 28.0614 41.6337 28.3075V28.369V28.4305C41.51 28.7382 41.3863 29.2304 41.6956 29.5381C41.7574 29.5996 41.8811 29.6611 42.0667 29.6611C42.0049 29.7842 41.943 29.8457 41.943 29.9688C41.8811 30.3995 42.4378 30.6456 42.6853 30.7687L42.7471 30.8302L42.809 30.8917C43.0564 31.0763 43.4894 31.384 43.8605 31.1379C43.9842 31.0763 44.0461 30.9533 44.1079 30.8302C44.1698 30.9533 44.2935 31.0148 44.3554 31.0763C44.7884 31.2609 45.1595 30.8302 45.3451 30.6456L45.4069 30.5841L45.4688 30.5226C45.7162 30.338 46.1492 30.0303 46.0873 29.5996C46.0873 29.4765 45.9636 29.415 45.9018 29.292C46.0255 29.2304 46.1492 29.2304 46.211 29.1074C46.3966 28.9228 46.0873 28.4305 45.9636 28.1844Z" fill="white"/>
<path id="Vector_54" d="M43.7988 28.6767C41.6339 26.7693 43.4277 27.0154 43.6751 27.0154C43.8607 26.9539 45.5926 26.4001 43.7988 28.6767Z" fill="#E30613"/>
<path id="Vector_55" d="M43.4898 28.9225C41.0155 30.3992 41.7578 28.7994 41.8197 28.5533C41.8815 28.3072 41.8815 26.5228 43.4898 28.9225Z" fill="#E30613"/>
<path id="Vector_56" d="M43.6132 29.2913C44.2318 32.0601 42.9328 30.891 42.7472 30.768C42.5617 30.5834 40.8916 30.0296 43.6132 29.2913Z" fill="#E30613"/>
<path id="Vector_57" d="M44.0467 29.2297C46.8921 29.4759 45.3457 30.3373 45.1601 30.5219C44.9745 30.6449 43.923 32.1217 44.0467 29.2297Z" fill="#E30613"/>
<path id="Vector_58" d="M44.1084 28.8611C45.2218 26.2153 45.5929 27.9997 45.6548 28.1843C45.7785 28.4304 46.83 29.8456 44.1084 28.8611Z" fill="#E30613"/>
<path id="Vector_59" d="M44.6649 28.9223V28.8607C44.9124 28.6761 45.1598 28.4916 45.1598 28.4916V28.43C45.1598 28.43 44.8505 28.4916 44.6031 28.5531C44.4794 28.307 44.232 28.1839 43.9227 28.1224C43.8608 27.8762 43.7371 27.6301 43.7371 27.6301H43.6753C43.6753 27.6301 43.6134 27.8762 43.6134 28.1839C43.4278 28.2454 43.3041 28.307 43.1804 28.43C43.1186 28.4916 43.0567 28.6146 43.0567 28.6761C42.7474 28.6761 42.5 28.6761 42.5 28.6761V28.7377C42.5 28.7377 42.7474 28.8607 43.0567 28.9838V29.0453C43.0567 29.2914 43.1804 29.476 43.366 29.5991C43.3041 29.9067 43.1804 30.2144 43.1804 30.2144H43.2423C43.2423 30.2144 43.4897 29.9683 43.6753 29.7837C43.799 29.8452 43.9227 29.8452 43.9845 29.8452C44.1082 29.8452 44.232 29.7837 44.2938 29.7222C44.5412 29.9067 44.7887 30.0913 44.7887 30.0913L44.8505 30.0298C44.8505 30.0298 44.7268 29.7222 44.5412 29.476C44.6031 29.353 44.7268 29.1684 44.6649 28.9223Z" fill="white"/>
<path id="Vector_60" d="M43.799 28.4915C43.6753 28.4915 43.5516 28.553 43.4279 28.676C43.3661 28.7991 43.3042 28.9222 43.3042 29.0452C43.3042 29.3529 43.5516 29.5375 43.8609 29.4759C43.9846 29.4759 44.1083 29.4144 44.232 29.2914C44.2939 29.1683 44.3557 29.0452 44.3557 28.9222C44.2939 28.676 44.0465 28.4915 43.799 28.4915Z" fill="#E30613"/>
<path id="Vector_61" d="M5.44852 28.6767C7.61347 26.7693 5.81966 27.0154 5.57224 27.0154C5.38667 26.9539 3.65471 26.4001 5.44852 28.6767Z" fill="#E30613"/>
<path id="Vector_62" d="M6.25235 29.0453C6.49977 28.9223 6.80905 28.7992 6.80905 28.7992V28.7377C6.80905 28.7377 6.49977 28.7377 6.25235 28.7377C6.19049 28.6761 6.19049 28.5531 6.12864 28.4916C6.00493 28.3685 5.88122 28.2454 5.69565 28.2454C5.57194 27.9378 5.57194 27.6301 5.57194 27.6301H5.51008C5.51008 27.6301 5.44823 27.8762 5.32452 28.1224C5.07709 28.1224 4.82967 28.307 4.6441 28.5531C4.39668 28.4916 4.0874 28.43 4.0874 28.43V28.4916C4.0874 28.4916 4.33482 28.6761 4.58225 28.8607V28.9223C4.58225 29.1684 4.6441 29.353 4.76781 29.5376C4.6441 29.7837 4.45854 30.0913 4.45854 30.0913L4.52039 30.1529C4.52039 30.1529 4.76781 29.9683 5.01524 29.7837C5.13895 29.8452 5.2008 29.8452 5.32452 29.9067C5.44823 29.9067 5.57194 29.9068 5.63379 29.8452C5.81936 30.0298 6.06678 30.2759 6.06678 30.2759H6.12864C6.12864 30.2759 6.00493 29.9683 5.94307 29.6606C6.12864 29.5376 6.19049 29.2914 6.25235 29.1069C6.25235 29.0453 6.25235 29.0453 6.25235 29.0453Z" fill="white"/>
<path id="Vector_63" d="M5.81992 28.676C5.75807 28.553 5.63436 28.4915 5.44879 28.4915C5.13951 28.4915 4.95395 28.676 4.89209 28.9222C4.89209 29.0452 4.89209 29.1683 5.0158 29.2914C5.07766 29.4144 5.20137 29.4759 5.38694 29.4759C5.69621 29.4759 5.94364 29.2914 5.94364 29.0452C5.94364 28.9222 5.88178 28.7991 5.81992 28.676Z" fill="#E30613"/>
<path id="Vector_64" d="M5.75787 16.7389C4.58261 16.5543 3.40735 17.3542 3.15993 18.5233C2.97436 19.6923 3.77849 20.8614 4.95374 21.1075C6.129 21.2921 7.30426 20.4922 7.55168 19.3232C7.7991 18.0926 6.99498 16.985 5.75787 16.7389Z" fill="white"/>
<path id="Vector_65" d="M6.25239 18.4005C6.25239 18.4005 6.19053 18.339 6.12868 18.339C5.94311 18.2159 5.57198 17.9698 5.57198 17.9698C5.51012 17.9083 5.44827 17.9083 5.44827 17.8467C5.2627 17.7237 5.13899 17.6621 5.01528 17.6006C4.95342 17.6006 4.89157 17.5391 4.89157 17.5391C4.706 17.416 4.45858 17.3545 4.21115 17.3545C4.02559 17.4776 3.84002 17.6621 3.71631 17.8467C4.27301 18.0313 4.82971 18.339 5.94311 19.0773C6.06682 18.8928 6.25239 18.462 6.25239 18.4005Z" fill="#E30613"/>
<path id="Vector_66" d="M5.75757 19.631C5.75757 19.5695 5.88128 19.3234 5.94313 19.2003C4.76788 18.462 4.27303 18.1543 3.71633 17.9697C3.65447 18.1543 3.59262 18.2774 3.53076 18.462C3.77818 18.8927 4.64416 19.3234 5.75757 19.631Z" fill="#E30613"/>
<path id="Vector_67" d="M5.63416 17.7847C6.06715 17.5385 6.562 17.6001 6.93313 17.7231C6.80942 17.5385 6.62385 17.3539 6.43829 17.2309C6.06715 17.1694 5.57231 17.1694 5.20117 17.477C5.32488 17.6001 5.4486 17.7231 5.63416 17.7847Z" fill="#E30613"/>
<path id="Vector_68" d="M3.90223 19.8771C3.96408 19.9386 4.02594 19.9386 4.08779 20.0001C4.21151 20.0617 4.33522 20.1232 4.52078 20.1847C4.58264 20.1847 4.6445 20.2463 4.70635 20.2463C4.89192 20.3078 5.38676 20.4309 5.44862 20.4309C5.44862 20.4309 5.63419 19.9386 5.69604 19.754C4.83006 19.5694 3.90223 19.2003 3.46924 18.708C3.46924 18.9541 3.46924 19.1387 3.53109 19.3848C3.59295 19.5694 3.71666 19.6925 3.90223 19.8771Z" fill="#E30613"/>
<path id="Vector_69" d="M5.44832 20.6165L5.26276 20.5549C5.07719 20.4934 4.89162 20.4934 4.70605 20.4319C4.76791 20.6165 4.95348 20.7395 5.07719 20.8626C5.26276 20.8626 5.44832 20.8626 5.69575 20.8626C5.57203 20.7395 5.44832 20.6165 5.44832 20.6165Z" fill="#E30613"/>
<path id="Vector_70" d="M7.24235 18.3401C7.18049 18.2171 7.11864 18.094 7.05678 17.9709C6.7475 17.8479 6.1908 17.6633 5.75781 17.9094L6.37637 18.3401C6.50008 18.3401 6.62379 18.3401 6.7475 18.3401C6.80936 18.3401 6.87122 18.3401 6.93307 18.3401C7.05678 18.3401 7.18049 18.3401 7.24235 18.3401Z" fill="#E30613"/>
<path id="Vector_71" d="M6.93321 18.4619C6.93321 19.4464 6.43836 20.2463 6.00537 20.7385C6.62393 20.4924 7.18063 19.9386 7.30434 19.2618C7.36619 19.0157 7.36619 18.7696 7.30434 18.5234C7.18063 18.5234 7.05692 18.5234 6.93321 18.4619Z" fill="#E30613"/>
<path id="Vector_72" d="M5.0152 17.4157C5.32448 17.1696 5.63375 17.0465 5.94303 17.0465C5.88118 17.0465 5.75746 16.985 5.69561 16.985C5.26262 16.9235 4.82963 16.985 4.4585 17.1696C4.64406 17.2926 4.82963 17.3542 5.0152 17.4157Z" fill="#E30613"/>
<path id="Vector_73" d="M6.43824 18.4619C6.31453 18.7696 6.19082 18.9542 6.12897 19.1387C6.12897 19.2003 6.06711 19.2618 6.06711 19.3233C6.00525 19.3849 5.9434 19.6925 5.9434 19.6925L5.88154 19.8771L5.57227 20.4924C5.63412 20.6155 5.75783 20.677 5.81969 20.7385C6.25268 20.2463 6.74752 19.5079 6.74752 18.4619C6.68567 18.4619 6.56196 18.4619 6.43824 18.4619Z" fill="#E30613"/>
<path id="Vector_74" d="M4.52055 20.3072C4.39684 20.2456 4.27313 20.1841 4.14941 20.1226C4.21127 20.2456 4.27312 20.4302 4.33498 20.4917C4.45869 20.6148 4.64426 20.6763 4.82983 20.7379C4.70611 20.6763 4.5824 20.4917 4.52055 20.3072Z" fill="#E30613"/>
<path id="Vector_75" d="M3.96373 20.0611C3.90188 19.9995 3.77816 19.938 3.71631 19.8765C3.77816 20.0611 3.90188 20.1841 4.02559 20.3072C3.96373 20.2456 3.96373 20.1226 3.96373 20.0611Z" fill="#E30613"/>
<path id="Vector_76" d="M41.4485 19.3247C41.6341 20.4938 42.8094 21.3552 44.0465 21.1091C45.2217 20.9245 46.0877 19.7554 45.8403 18.5248C45.6547 17.3557 44.4795 16.4943 43.2424 16.7404C42.0052 16.9866 41.2011 18.0941 41.4485 19.3247Z" fill="white"/>
<path id="Vector_77" d="M42.7476 18.4005C42.7476 18.4005 42.8094 18.339 42.8713 18.339C43.0568 18.2159 43.428 17.9698 43.428 17.9698C43.4898 17.9083 43.5517 17.9083 43.5517 17.8467C43.7373 17.7237 43.861 17.6621 43.9847 17.6006C44.0465 17.6006 44.1084 17.5391 44.1084 17.5391C44.294 17.416 44.5414 17.3545 44.7888 17.3545C44.9744 17.4776 45.1599 17.6621 45.2836 17.8467C44.7269 18.0313 44.1702 18.339 43.0568 19.0773C42.9331 18.8928 42.7476 18.462 42.7476 18.4005Z" fill="#E30613"/>
<path id="Vector_78" d="M43.2422 19.631C43.2422 19.5695 43.1185 19.3234 43.0566 19.2003C44.2319 18.462 44.7267 18.1543 45.2834 17.9697C45.3453 18.1543 45.4072 18.2774 45.469 18.462C45.2216 18.8927 44.3556 19.3234 43.2422 19.631Z" fill="#E30613"/>
<path id="Vector_79" d="M43.3659 17.7847C42.9329 17.5385 42.438 17.6001 42.0669 17.7231C42.1906 17.5385 42.3762 17.3539 42.5617 17.2309C42.9329 17.1694 43.4277 17.1694 43.7989 17.477C43.6751 17.6001 43.5514 17.7231 43.3659 17.7847Z" fill="#E30613"/>
<path id="Vector_80" d="M45.098 19.8771C45.0362 19.9386 44.9743 19.9386 44.9124 20.0001C44.7887 20.0617 44.665 20.1232 44.4795 20.1847C44.4176 20.1847 44.3557 20.2463 44.2939 20.2463C44.1083 20.3078 43.6135 20.4309 43.5516 20.4309C43.5516 20.4309 43.3661 19.9386 43.3042 19.754C44.1702 19.5694 45.098 19.2003 45.531 18.708C45.531 18.9541 45.531 19.1387 45.4691 19.3848C45.4073 19.5694 45.2836 19.6925 45.098 19.8771Z" fill="#E30613"/>
<path id="Vector_81" d="M43.5516 20.6165L43.7372 20.5549C43.9228 20.4934 44.1083 20.4934 44.2939 20.4319C44.232 20.6165 44.0465 20.7395 43.9228 20.8626C43.7372 20.8626 43.5516 20.8626 43.3042 20.8626C43.4279 20.7395 43.5516 20.6165 43.5516 20.6165Z" fill="#E30613"/>
<path id="Vector_82" d="M41.7578 18.3401C41.8197 18.2171 41.8815 18.094 41.9434 17.9709C42.2527 17.8479 42.8094 17.6633 43.2423 17.9094L42.6238 18.3401C42.5001 18.3401 42.3764 18.3401 42.2527 18.3401C42.1908 18.3401 42.1289 18.3401 42.0671 18.3401C41.9434 18.3401 41.8197 18.3401 41.7578 18.3401Z" fill="#E30613"/>
<path id="Vector_83" d="M42.0669 18.4619C42.0669 19.4464 42.5618 20.2463 42.9948 20.7385C42.3762 20.4924 41.8195 19.9386 41.6958 19.2618C41.634 19.0157 41.634 18.7696 41.6958 18.5234C41.8195 18.5234 41.9432 18.5234 42.0669 18.4619Z" fill="#E30613"/>
<path id="Vector_84" d="M43.9845 17.4157C43.6752 17.1696 43.3659 17.0465 43.0566 17.0465C43.1185 17.0465 43.2422 16.985 43.3041 16.985C43.7371 16.9235 44.17 16.985 44.5412 17.1696C44.3556 17.2926 44.17 17.3542 43.9845 17.4157Z" fill="#E30613"/>
<path id="Vector_85" d="M42.5621 18.4619C42.6858 18.7696 42.8095 18.9542 42.8713 19.1387C42.8713 19.2003 42.9332 19.2618 42.9332 19.3233C42.995 19.3849 43.0569 19.6925 43.0569 19.6925L43.1188 19.8771L43.3662 20.5539C43.3043 20.677 43.1806 20.7385 43.1188 20.8001C42.6858 20.3078 42.1909 19.5695 42.1909 18.5234C42.3146 18.4619 42.4383 18.4619 42.5621 18.4619Z" fill="#E30613"/>
<path id="Vector_86" d="M44.4797 20.3072C44.6034 20.2456 44.7271 20.1841 44.8508 20.1226C44.789 20.2456 44.7271 20.4302 44.6653 20.4917C44.5415 20.6148 44.356 20.6763 44.1704 20.7379C44.2941 20.6763 44.4178 20.4917 44.4797 20.3072Z" fill="#E30613"/>
<path id="Vector_87" d="M45.036 20.0611C45.1597 19.9995 45.2215 19.938 45.2834 19.8765C45.2215 20.0611 45.0978 20.1841 44.9741 20.3072C45.036 20.2456 45.036 20.1226 45.036 20.0611Z" fill="#E30613"/>
</g>
</svg>
