<svg width="24" height="24" viewBox="0 0 24 24" fill="none" xmlns="http://www.w3.org/2000/svg">
<path opacity="0.2" d="M12 3C10.22 3 8.47991 3.52784 6.99987 4.51677C5.51983 5.50571 4.36628 6.91131 3.68509 8.55585C3.0039 10.2004 2.82567 12.01 3.17294 13.7558C3.5202 15.5016 4.37737 17.1053 5.63604 18.364C6.89472 19.6226 8.49836 20.4798 10.2442 20.8271C11.99 21.1743 13.7996 20.9961 15.4442 20.3149C17.0887 19.6337 18.4943 18.4802 19.4832 17.0001C20.4722 15.5201 21 13.78 21 12C21 9.61305 20.0518 7.32387 18.364 5.63604C16.6761 3.94821 14.387 3 12 3ZM10.5 15V9L15 12L10.5 15Z" fill="#E62F2B"/>
<path d="M12 2.25C10.0716 2.25 8.18657 2.82183 6.58319 3.89317C4.97982 4.96451 3.73013 6.48726 2.99218 8.26884C2.25422 10.0504 2.06114 12.0108 2.43735 13.9021C2.81355 15.7934 3.74215 17.5307 5.10571 18.8943C6.46928 20.2579 8.20656 21.1865 10.0979 21.5627C11.9892 21.9389 13.9496 21.7458 15.7312 21.0078C17.5127 20.2699 19.0355 19.0202 20.1068 17.4168C21.1782 15.8134 21.75 13.9284 21.75 12C21.7473 9.41498 20.7192 6.93661 18.8913 5.10872C17.0634 3.28084 14.585 2.25273 12 2.25ZM12 20.25C10.3683 20.25 8.77326 19.7661 7.41655 18.8596C6.05984 17.9531 5.00242 16.6646 4.378 15.1571C3.75358 13.6496 3.5902 11.9908 3.90853 10.3905C4.22685 8.79016 5.01259 7.32015 6.16637 6.16637C7.32016 5.01259 8.79017 4.22685 10.3905 3.90852C11.9909 3.59019 13.6497 3.75357 15.1571 4.37799C16.6646 5.00242 17.9531 6.05984 18.8596 7.41655C19.7661 8.77325 20.25 10.3683 20.25 12C20.2475 14.1873 19.3775 16.2843 17.8309 17.8309C16.2843 19.3775 14.1873 20.2475 12 20.25ZM15.4163 11.3756L10.9163 8.37562C10.8033 8.30025 10.672 8.25696 10.5363 8.25039C10.4006 8.24382 10.2657 8.27421 10.146 8.33831C10.0263 8.40241 9.9262 8.49782 9.85645 8.61436C9.78671 8.7309 9.74992 8.86419 9.75 9V15C9.74992 15.1358 9.78671 15.2691 9.85645 15.3856C9.9262 15.5022 10.0263 15.5976 10.146 15.6617C10.2657 15.7258 10.4006 15.7562 10.5363 15.7496C10.672 15.743 10.8033 15.6998 10.9163 15.6244L15.4163 12.6244C15.5191 12.5559 15.6035 12.4631 15.6618 12.3542C15.7202 12.2452 15.7507 12.1236 15.7507 12C15.7507 11.8764 15.7202 11.7548 15.6618 11.6458C15.6035 11.5369 15.5191 11.4441 15.4163 11.3756ZM11.25 13.5984V10.4062L13.6481 12L11.25 13.5984Z" fill="#E62F2B"/>
</svg>
