<svg width="24" height="24" viewBox="0 0 24 24" fill="none" xmlns="http://www.w3.org/2000/svg">
<g id="Group">
<path id="Vector" d="M20.4853 3.51473C18.2188 1.24823 15.2053 0 12 0C8.79469 0 5.78123 1.24823 3.51469 3.51473C1.24819 5.78123 0 8.79469 0 12C0 15.2054 1.24819 18.2188 3.51469 20.4853C5.78119 22.7518 8.79469 24 12 24C15.2053 24 18.2188 22.7518 20.4853 20.4853C22.7518 18.2188 24 15.2054 24 12C24 8.79469 22.7518 5.78123 20.4853 3.51473ZM12.7031 4.07386L15.5377 2.01441C17.6576 2.76773 19.4686 4.17783 20.7252 5.99902L19.6991 9.1568L16.083 10.3318L12.7031 7.87627V4.07386ZM8.4623 2.01445L11.2969 4.07386V7.87636L7.91742 10.3315L4.30111 9.15656L3.27497 5.99883C4.53145 4.17773 6.34247 2.76773 8.4623 2.01445ZM3.81516 18.7183C2.36573 16.9557 1.47333 14.7187 1.40995 12.2788L3.86658 10.494L7.48266 11.6689L8.77364 15.6422L6.53873 18.7183H3.81516ZM15.5298 21.9883C14.4251 22.3799 13.2372 22.5938 12 22.5938C10.7629 22.5938 9.57492 22.3799 8.47031 21.9884L7.67634 19.5449L9.9112 16.4689L14.0888 16.4687L16.3238 19.5448L15.5298 21.9883ZM20.1849 18.7182H17.4614L15.2265 15.6421L16.5175 11.6692L20.1337 10.4942L22.59 12.279C22.5267 14.7187 21.6343 16.9557 20.1849 18.7182Z" fill="#02A981"/>
</g>
</svg>
