<svg width="12" height="23" viewBox="0 0 12 23" fill="none" xmlns="http://www.w3.org/2000/svg">
<g id="Group">
<path id="Vector" d="M10.727 5.23595L6.78066 1.28156C6.15578 0.65598 5.14212 0.65543 4.51654 1.28031L4.51529 1.28156L0.512873 5.28398C-0.0701292 5.84051 -0.168088 6.7358 0.280733 7.40526C0.803098 8.11864 1.80485 8.27353 2.51828 7.75117C2.57593 7.70895 2.63068 7.66292 2.68218 7.61338L3.22651 7.06906C3.48744 6.80795 3.68467 6.4902 3.80286 6.14049L4.01899 5.64419V20.7653C3.98862 21.5832 4.55992 22.3007 5.3638 22.4544C6.23658 22.5959 7.05888 22.0031 7.20041 21.1303C7.21527 21.0387 7.22213 20.9461 7.22093 20.8534V5.64419L7.38102 6.10047C7.50123 6.43797 7.69542 6.7443 7.94937 6.99701L8.52571 7.57336C9.15069 8.19879 10.1644 8.19919 10.7898 7.57421C10.8209 7.54314 10.8507 7.51081 10.8791 7.4773C11.4161 6.80334 11.3501 5.83116 10.727 5.23595Z" fill="#02A981"/>
</g>
</svg>
