<svg width="12" height="23" viewBox="0 0 12 23" fill="none" xmlns="http://www.w3.org/2000/svg">
<g id="Group">
<path id="Vector" d="M11.5111 15.4522C11.463 15.4058 11.4122 15.3625 11.3587 15.3225C10.6893 14.8737 9.79398 14.9717 9.23744 15.5547L8.73314 16.059C8.55958 16.2331 8.41379 16.4329 8.30088 16.6513L7.98869 17.2517V2.33068C8.02041 1.51784 7.45737 0.802157 6.65989 0.64166C5.78506 0.513382 4.97186 1.11865 4.84364 1.99348C4.83155 2.07596 4.82591 2.15927 4.82678 2.24263V17.2277L4.61065 16.7554C4.49383 16.5029 4.33403 16.2727 4.13836 16.075L3.61004 15.5467C3.05351 14.9637 2.15822 14.8657 1.48876 15.3145C0.77538 15.8369 0.620486 16.8386 1.14285 17.5521C1.18507 17.6097 1.2311 17.6645 1.28064 17.716L5.28305 21.7184C5.90793 22.344 6.92159 22.3445 7.54717 21.7196L7.54842 21.7184L11.5508 17.716C12.165 17.0798 12.1472 16.0663 11.5111 15.4522Z" fill="#E62F2B"/>
</g>
</svg>
