<svg width="25" height="24" viewBox="0 0 25 24" fill="none" xmlns="http://www.w3.org/2000/svg">
<g id="Group">
<path id="Vector" d="M21.2851 3.51473C19.0186 1.24823 16.0051 0 12.7998 0C9.59449 0 6.58104 1.24823 4.31449 3.51473C2.04799 5.78123 0.799805 8.79469 0.799805 12C0.799805 15.2054 2.04799 18.2188 4.31449 20.4853C6.58099 22.7518 9.59449 24 12.7998 24C16.0051 24 19.0186 22.7518 21.2851 20.4853C23.5516 18.2188 24.7998 15.2054 24.7998 12C24.7998 8.79469 23.5516 5.78123 21.2851 3.51473ZM13.5029 4.07386L16.3375 2.01441C18.4574 2.76773 20.2684 4.17783 21.525 5.99902L20.4989 9.1568L16.8829 10.3318L13.5029 7.87627V4.07386ZM9.2621 2.01445L12.0967 4.07386V7.87636L8.71723 10.3315L5.10091 9.15656L4.07477 5.99883C5.33126 4.17773 7.14227 2.76773 9.2621 2.01445ZM4.61496 18.7183C3.16554 16.9557 2.27313 14.7187 2.20976 12.2788L4.66638 10.494L8.28246 11.6689L9.57345 15.6422L7.33854 18.7183H4.61496ZM16.3296 21.9883C15.2249 22.3799 14.037 22.5938 12.7998 22.5938C11.5627 22.5938 10.3747 22.3799 9.27012 21.9884L8.47615 19.5449L10.711 16.4689L14.8886 16.4687L17.1236 19.5448L16.3296 21.9883ZM20.9847 18.7182H18.2612L16.0263 15.6421L17.3173 11.6692L20.9335 10.4942L23.3898 12.279C23.3265 14.7187 22.4341 16.9557 20.9847 18.7182Z" fill="#E62F2B"/>
</g>
</svg>
