<svg width="25" height="16" viewBox="0 0 25 16" fill="none" xmlns="http://www.w3.org/2000/svg">
<g id="Group">
<path id="Vector" d="M22.8502 15.1625V1.96248H1.5502V15.1625H0.200195V1.43748C0.200195 1.06248 0.537695 0.724976 0.912695 0.724976H23.4877C23.9002 0.724976 24.2002 1.02498 24.2002 1.43748V15.1625H22.8502Z" fill="#111111"/>
<path id="Vector_2" d="M20.5627 12.35L22.1377 14V3.01245L21.6877 3.42495L20.5627 12.35ZM2.2627 3.01245V14.075L4.1377 12.35L2.7127 3.42495L2.2627 3.01245ZM17.4127 8.59995V8.56245C17.4127 8.52495 17.3752 8.44995 17.3752 8.41245C17.3377 8.29995 17.3002 8.18745 17.2627 8.11245C17.2252 8.03745 17.1877 7.96245 17.1502 7.84995C17.1127 7.81245 17.1127 7.73745 17.0752 7.69995C17.0377 7.54995 16.9627 7.43745 16.8877 7.28745C16.8127 7.13745 16.8877 7.24995 16.8502 7.24995C16.8502 7.24995 16.8502 7.21245 16.8127 7.21245C16.8127 7.21245 16.8127 7.17495 16.7752 7.17495V7.13745C16.7752 7.13745 16.7752 7.09995 16.7377 7.09995L16.5127 6.76245C16.3627 6.57495 16.2127 6.34995 16.0252 6.19995L15.9877 6.16245C15.9127 6.08745 15.8002 6.01245 15.7252 5.89995C15.6127 5.78745 15.4627 5.67495 15.3502 5.59995C15.2752 5.56245 15.2377 5.52495 15.1627 5.48745C15.1252 5.44995 15.0502 5.41245 15.0127 5.37495C14.9002 5.29995 14.7877 5.22495 14.6377 5.18745L14.4127 5.07495C14.3752 5.07495 14.3377 5.03745 14.3002 5.03745C14.2252 4.99995 14.1877 4.99995 14.1127 4.96245C14.0752 4.96245 14.0377 4.92495 14.0002 4.92495C13.8877 4.88745 13.8127 4.84995 13.7002 4.84995C13.5877 4.81245 13.5127 4.81245 13.4002 4.77495C12.8377 4.66245 12.2377 4.62495 11.6752 4.66245C11.4877 4.66245 11.3002 4.69995 11.1502 4.73745H11.0377L10.5877 4.84995C10.5127 4.88745 10.4002 4.92495 10.3252 4.92495C10.0627 5.03745 9.8002 5.14995 9.5752 5.29995C9.5002 5.33745 9.4252 5.37495 9.3877 5.41245C9.3127 5.44995 9.2377 5.48745 9.16269 5.56245C9.0127 5.67495 8.9002 5.74995 8.78769 5.86245C8.7127 5.89995 8.6752 5.97495 8.60019 6.01245L8.3752 6.23745L8.1877 6.42495C8.1502 6.49995 8.0752 6.53745 8.03769 6.61245L8.0002 6.64995C8.0002 6.64995 8.0002 6.68745 7.9627 6.68745C7.9252 6.72495 7.8877 6.79995 7.85019 6.83745C7.8127 6.91245 7.7377 6.98745 7.7002 7.06245C7.6627 7.13745 7.6252 7.21245 7.5502 7.28745C7.5127 7.32495 7.47519 7.39995 7.4377 7.47495C7.4002 7.51245 7.4002 7.54995 7.3627 7.62495C7.3252 7.66245 7.3252 7.73745 7.28769 7.77495C7.2127 7.92495 7.1377 8.11245 7.10019 8.26245C7.0627 8.33745 7.0627 8.41245 7.0252 8.48745V8.56245C6.9877 8.63745 6.9877 8.71245 6.9502 8.78745C6.9127 8.89995 6.91269 8.97495 6.8752 9.08745C6.8377 9.19995 6.8377 9.27495 6.8377 9.38745V9.98745C6.8377 10.25 6.8377 10.475 6.8752 10.7375C6.8752 10.85 6.9127 11 6.9502 11.1125C6.9877 11.225 7.0252 11.375 7.0627 11.4875C7.13769 11.7125 7.2127 11.975 7.3252 12.2C7.4377 12.425 7.5502 12.6125 7.66269 12.8375C7.66269 12.875 7.7002 12.9125 7.7002 12.9125C7.7002 12.95 7.7377 12.95 7.7377 12.9875C8.4877 14.1125 9.6502 14.9 11.0002 15.2375C11.4127 15.3125 11.7877 15.3875 12.2002 15.3875C12.4252 15.3875 12.6127 15.3875 12.8377 15.35C12.9877 15.35 13.1002 15.3125 13.2502 15.275C13.3627 15.2375 13.4752 15.2375 13.5877 15.2H13.6627C13.7002 15.2 13.7002 15.2 13.7377 15.1625C13.7752 15.1625 13.8127 15.125 13.8877 15.125C13.9627 15.0875 14.0002 15.0875 14.0752 15.05C14.1877 15.0125 14.3002 14.975 14.4127 14.9C14.6377 14.7875 14.8252 14.675 15.0502 14.5625C15.1627 14.4875 15.2752 14.4125 15.3502 14.3375C15.5752 14.1875 15.7252 14.0375 15.9127 13.85L16.1002 13.6625L16.1752 13.5875C16.2127 13.5875 16.2127 13.55 16.2127 13.5125C16.4002 13.325 16.5502 13.1375 16.6627 12.9125C16.8127 12.6875 16.9627 12.425 17.0752 12.2C17.2627 11.825 17.3752 11.4125 17.4502 11C17.4502 10.925 17.4877 10.85 17.4877 10.7375C17.4877 10.6625 17.5252 10.5875 17.5252 10.475C17.5252 10.4 17.5252 10.2875 17.5627 10.2125V9.94995C17.5627 9.61245 17.5252 9.27495 17.4502 8.93745C17.4502 8.78745 17.4127 8.71245 17.4127 8.59995ZM8.4877 12.6875L9.2002 11.075L10.2502 10.8125L11.7127 12.05L11.6377 13.1375L10.1752 14.1125C9.5002 13.7375 8.9002 13.2875 8.4877 12.6875ZM14.3002 10.3625L13.8127 8.48745L14.4877 7.66245L16.2502 7.73745C16.5877 8.41245 16.7752 9.12495 16.7752 9.83745L15.2377 10.7375L14.3002 10.3625ZM12.2002 5.26245C12.5377 5.26245 12.9127 5.29995 13.2502 5.37495L13.5877 5.48745L13.9627 7.21245L13.2877 8.03745L11.3752 7.88745L10.8127 6.98745L11.4127 5.33745C11.6752 5.26245 11.9377 5.26245 12.2002 5.26245ZM7.66269 8.86245C7.8127 8.26245 8.03769 7.69995 8.41269 7.21245L10.1752 7.36245L10.7377 8.26245L10.0252 10.0625L8.97519 10.325L7.5877 9.23745C7.6252 9.12495 7.6252 9.01245 7.66269 8.86245ZM14.6752 13.85C14.3752 14.0375 14.0377 14.1875 13.6627 14.3L12.3502 13.1375L12.4252 12.05L14.0377 11.0375L15.0502 11.45L15.5377 13.1375C15.2752 13.4 14.9752 13.625 14.6752 13.85Z" fill="#111111"/>
<path id="Vector_3" d="M21.0877 2.97496L21.5752 2.52496H2.8252L3.3127 2.97496C3.3877 3.01246 3.4252 3.08746 3.4252 3.19996L4.8127 12.125H6.5002C6.05019 11 5.9752 9.76246 6.2377 8.56246C6.6127 6.98746 7.5502 5.63746 8.9377 4.77496C10.3252 3.91246 11.9377 3.61246 13.5502 3.98746C15.1252 4.36246 16.4752 5.29996 17.3752 6.68746C18.0127 7.69996 18.3127 8.82496 18.3127 9.91246C18.3127 10.6625 18.1627 11.45 17.9002 12.1625H19.8877L21.0127 3.23746C21.0127 3.12496 21.0502 3.04996 21.0877 2.97496Z" fill="#111111"/>
</g>
</svg>
