<svg width="17" height="24" viewBox="0 0 17 24" fill="none" xmlns="http://www.w3.org/2000/svg">
<g id="Group">
<path id="Vector" d="M16.1444 16.494C16.4837 15.6859 16.6168 14.8062 16.5318 13.9339C16.4113 12.8237 15.9543 11.7769 15.2219 10.9339L11.1187 6.08362V23.9062H15.7124C15.8059 23.9063 15.8983 23.8863 15.9835 23.8477C16.0687 23.8091 16.1446 23.7527 16.2062 23.6824C16.2678 23.612 16.3137 23.5293 16.3407 23.4398C16.3678 23.3503 16.3754 23.2561 16.363 23.1634L15.8324 19.1914C15.6956 18.2805 15.8033 17.3496 16.1444 16.494Z" fill="#FFDDBE"/>
<path id="Vector_2" d="M10.2749 0.09375H2.3999C1.82821 0.0943456 1.28011 0.321713 0.875861 0.725959C0.471615 1.13021 0.244248 1.67831 0.243652 2.25V14.25C0.244248 14.8217 0.471615 15.3698 0.875861 15.774C1.28011 16.1783 1.82821 16.4057 2.3999 16.4062H11.7749C11.8611 16.4063 11.9465 16.3894 12.0261 16.3564C12.1057 16.3234 12.1781 16.2751 12.2391 16.2141C12.3 16.1532 12.3483 16.0808 12.3813 16.0012C12.4143 15.9216 12.4312 15.8362 12.4312 15.75V2.25C12.4306 1.67831 12.2032 1.13021 11.7989 0.725959C11.3947 0.321713 10.8466 0.0943456 10.2749 0.09375Z" fill="#F45050"/>
<path id="Vector_3" d="M16.3625 23.1634L15.812 19.0384L12.7613 15.75H12.3177C12.1831 15.7502 12.0516 15.709 11.9411 15.632C11.8306 15.555 11.7465 15.4459 11.7001 15.3195L9.9571 10.557C9.8209 10.166 9.54569 9.83866 9.18384 9.63738C8.822 9.43609 8.39878 9.37487 7.99472 9.46535C7.77305 9.52156 7.56562 9.62362 7.38582 9.76494C7.20603 9.90625 7.05785 10.0837 6.95086 10.2858C6.84386 10.4879 6.78043 10.7102 6.76464 10.9384C6.74886 11.1665 6.78108 11.3954 6.85922 11.6104L8.15597 15.1729C7.9236 16.2282 7.93453 17.3227 8.18792 18.3732C8.44131 19.4238 8.93052 20.4028 9.61847 21.2362V23.25C9.61857 23.4241 9.6878 23.591 9.81093 23.714C9.93406 23.8371 10.101 23.9062 10.2751 23.9062H15.7126C15.806 23.9061 15.8984 23.8861 15.9835 23.8474C16.0685 23.8088 16.1444 23.7524 16.2059 23.6821C16.2674 23.6117 16.3132 23.5291 16.3402 23.4396C16.3672 23.3502 16.3748 23.256 16.3625 23.1634Z" fill="#FFDDBE"/>
</g>
</svg>
