<svg width="22" height="20" viewBox="0 0 22 20" fill="none" xmlns="http://www.w3.org/2000/svg">
<g id="Group">
<path id="Vector" d="M21.16 4.95796V18.97C21.16 19.3974 20.8134 19.744 20.386 19.744H11.774C11.3466 19.744 11 19.3974 11 18.97V4.95796C11 4.53052 11.3466 4.18396 11.774 4.18396H20.386C20.8134 4.18396 21.16 4.53052 21.16 4.95796Z" fill="#F4D550"/>
<path id="Vector_2" opacity="0.1" d="M21.16 4.95796V18.97C21.16 19.3974 20.8134 19.744 20.386 19.744H11.774C11.3466 19.744 11 19.3974 11 18.97V18.968C21.92 18.68 20.384 4.18396 20.384 4.18396H20.386C20.8134 4.18396 21.16 4.53052 21.16 4.95796Z" fill="#9F7B2E"/>
<path id="Vector_3" opacity="0.1" d="M11 17.368L14.8274 15.1216C15.09 14.9675 15.2059 14.6485 15.1036 14.3618L14.3329 12.2022L11 14.7851V17.368Z" fill="#9F7B2E"/>
<path id="Vector_4" d="M10.1225 0.800092L14.9762 13.9446C15.1243 14.3455 14.9193 14.7907 14.5182 14.9387L6.43943 17.9219C6.03847 18.07 5.59327 17.865 5.44527 17.4639L0.59159 4.31945C0.44351 3.91849 0.64855 3.47329 1.04959 3.32529L9.12839 0.342172C9.52935 0.194012 9.97447 0.399132 10.1225 0.800092Z" fill="#F45050"/>
<path id="Vector_5" opacity="0.2" d="M10.1223 0.800069L14.976 13.9445C15.1241 14.3455 14.9191 14.7907 14.518 14.9387L6.43922 17.9219C6.03826 18.07 5.59306 17.865 5.44506 17.4639L5.44434 17.4621C15.5885 13.4093 9.12626 0.342789 9.12626 0.342789L9.1281 0.342069C9.52914 0.193989 9.97426 0.399109 10.1223 0.800069Z" fill="#A71E33"/>
</g>
</svg>
