<svg width="17" height="24" viewBox="0 0 17 24" fill="none" xmlns="http://www.w3.org/2000/svg">
<g id="Group">
<path id="Vector" d="M16.3446 16.494C16.6839 15.6859 16.817 14.8062 16.732 13.9339C16.6115 12.8237 16.1545 11.7769 15.4221 10.9339L11.3188 6.08362V23.9062H15.9126C16.0061 23.9063 16.0985 23.8863 16.1837 23.8477C16.2689 23.8091 16.3448 23.7527 16.4064 23.6824C16.468 23.612 16.5139 23.5293 16.5409 23.4398C16.568 23.3503 16.5756 23.2561 16.5632 23.1634L16.0326 19.1914C15.8958 18.2805 16.0035 17.3496 16.3446 16.494Z" fill="#FFDDBE"/>
<path id="Vector_2" d="M10.4751 0.09375H2.6001C2.02841 0.0943456 1.4803 0.321713 1.07606 0.725959C0.67181 1.13021 0.444443 1.67831 0.443848 2.25V14.25C0.444443 14.8217 0.67181 15.3698 1.07606 15.774C1.4803 16.1783 2.02841 16.4057 2.6001 16.4062H11.9751C12.0613 16.4063 12.1467 16.3894 12.2263 16.3564C12.3059 16.3234 12.3783 16.2751 12.4392 16.2141C12.5002 16.1532 12.5485 16.0808 12.5815 16.0012C12.6145 15.9216 12.6314 15.8362 12.6313 15.75V2.25C12.6308 1.67831 12.4034 1.13021 11.9991 0.725959C11.5949 0.321713 11.0468 0.0943456 10.4751 0.09375Z" fill="#F4D550"/>
<path id="Vector_3" d="M16.5627 23.1634L16.0122 19.0384L12.9615 15.75H12.5179C12.3832 15.7502 12.2518 15.709 12.1413 15.632C12.0308 15.555 11.9467 15.4459 11.9003 15.3195L10.1573 10.557C10.0211 10.166 9.74588 9.83866 9.38404 9.63738C9.02219 9.43609 8.59897 9.37487 8.19492 9.46535C7.97325 9.52156 7.76582 9.62362 7.58602 9.76494C7.40622 9.90625 7.25804 10.0837 7.15105 10.2858C7.04406 10.4879 6.98062 10.7102 6.96484 10.9384C6.94906 11.1665 6.98128 11.3954 7.05942 11.6104L8.35617 15.1729C8.1238 16.2282 8.13472 17.3227 8.38811 18.3732C8.64151 19.4238 9.13072 20.4028 9.81867 21.2362V23.25C9.81877 23.4241 9.88799 23.591 10.0111 23.714C10.1343 23.8371 10.3012 23.9062 10.4753 23.9062H15.9128C16.0062 23.9061 16.0986 23.8861 16.1837 23.8474C16.2687 23.8088 16.3446 23.7524 16.4061 23.6821C16.4676 23.6117 16.5134 23.5291 16.5404 23.4396C16.5674 23.3502 16.575 23.256 16.5627 23.1634Z" fill="#FFDDBE"/>
</g>
</svg>
